<?xml version="1.0" standalone="no"?>
<!DOCTYPE svg PUBLIC "-//W3C//DTD SVG 20010904//EN"
 "http://www.w3.org/TR/2001/REC-SVG-20010904/DTD/svg10.dtd">
<svg version="1.0" xmlns="http://www.w3.org/2000/svg"
 width="620.000000pt" height="636.000000pt" viewBox="0 0 620.000000 636.000000"
 preserveAspectRatio="xMidYMid meet">

<g transform="translate(0.000000,636.000000) scale(0.100000,-0.100000)"
fill="#000000" stroke="none">
<path d="M0 3180 l0 -3180 3100 0 3100 0 0 3180 0 3180 -3100 0 -3100 0 0
-3180z m4255 2435 c160 -3 328 -8 375 -10 47 -2 158 -7 247 -10 89 -3 175 -8
190 -11 137 -23 163 -33 163 -64 0 -6 6 -18 14 -25 8 -8 20 -47 27 -87 7 -40
16 -75 20 -78 14 -10 29 -111 38 -257 0 -14 8 -23 19 -24 16 -1 16 -2 0 -6
-22 -5 -24 -43 -3 -43 13 0 15 -27 15 -184 0 -175 -1 -184 -20 -189 -14 -3
-20 -14 -20 -32 0 -18 6 -29 20 -32 20 -5 20 -14 20 -544 0 -472 -2 -539 -15
-539 -12 0 -15 -19 -15 -110 0 -91 3 -110 15 -110 11 0 15 -12 15 -45 0 -33
-4 -45 -15 -45 -12 0 -15 -14 -15 -62 -1 -135 -10 -531 -15 -673 -8 -212 -15
-278 -28 -288 -9 -6 -9 -10 2 -14 8 -3 9 -8 3 -12 -5 -3 -13 -35 -17 -71 -4
-36 -9 -78 -11 -95 -3 -16 -7 -61 -10 -100 -3 -38 -10 -71 -15 -73 -12 -5 -12
-89 0 -94 9 -3 11 -14 33 -180 7 -54 16 -98 20 -98 13 0 9 -40 -4 -41 -10 0
-10 -2 0 -6 14 -6 16 -33 2 -33 -5 0 -10 -15 -10 -32 -1 -71 -17 -109 -67
-154 -26 -24 -53 -43 -58 -44 -6 0 -29 -9 -50 -21 -45 -23 -103 -46 -155 -60
-19 -5 -64 -19 -100 -29 -36 -11 -112 -27 -170 -36 -130 -19 -287 -41 -360
-51 -30 -4 -320 -8 -645 -8 -523 0 -677 4 -751 20 -11 2 -45 7 -75 11 -30 3
-70 9 -89 14 -19 5 -60 12 -90 15 -109 14 -248 49 -315 80 -16 8 -44 17 -62
20 -17 3 -37 12 -43 20 -6 7 -23 16 -38 20 -15 4 -35 15 -45 26 -10 10 -24 19
-31 19 -7 0 -21 16 -32 35 -10 19 -22 35 -25 35 -17 0 -26 183 -14 285 2 16
-3 58 -11 92 -11 49 -24 73 -54 106 -22 23 -40 45 -40 49 0 5 -7 8 -15 8 -8 0
-36 15 -63 34 -26 19 -60 38 -75 41 -15 4 -27 11 -27 15 0 4 -12 11 -27 15
-15 3 -52 18 -83 32 -68 31 -86 38 -130 53 -19 7 -44 16 -55 20 -29 12 -133
46 -185 61 -25 7 -49 15 -55 19 -5 3 -37 14 -70 25 -33 11 -86 34 -117 52 -31
18 -59 33 -62 33 -10 0 -100 65 -136 97 -19 18 -39 33 -44 33 -10 0 -141 133
-162 166 -9 13 -21 24 -28 24 -6 0 -19 18 -29 40 -9 22 -21 40 -25 40 -4 0
-16 20 -26 45 -11 25 -23 45 -28 45 -4 0 -8 5 -8 11 0 6 -6 17 -14 24 -8 8
-22 40 -32 72 -10 32 -26 65 -35 74 -10 9 -23 44 -30 85 -7 38 -16 71 -19 74
-14 10 -32 107 -46 238 -5 47 -11 62 -23 63 -13 1 -13 2 2 6 21 5 23 33 2 33
-16 0 -17 7 -17 170 0 155 1 160 17 160 21 0 19 20 -2 21 -15 1 -15 2 -2 6 11
3 19 29 29 96 8 51 15 95 16 100 1 4 2 13 3 21 0 8 7 21 15 28 7 8 17 29 21
47 4 17 17 42 30 55 12 12 26 33 30 46 8 26 152 170 170 170 6 0 20 9 30 20
10 11 24 20 31 20 7 0 14 4 16 8 4 11 94 52 112 52 8 0 18 5 21 10 3 6 16 10
29 10 12 0 26 4 32 9 8 8 100 29 199 45 79 14 261 17 360 7 166 -17 195 -21
254 -36 98 -25 205 -8 264 43 12 11 17 30 17 74 0 43 4 60 15 64 20 8 19 40
-1 48 -15 6 -16 31 -12 248 3 172 8 243 16 246 7 2 12 24 12 53 0 32 4 49 13
49 8 0 7 4 -3 10 -8 5 -10 10 -4 10 7 0 17 33 24 73 19 119 22 131 35 144 7 7
19 34 26 61 l12 49 61 11 c97 18 122 21 291 27 88 3 203 8 255 10 52 2 226 7
385 11 160 3 291 7 292 8 4 3 581 -3 848 -9z"/>
<path d="M1110 4146 c-126 -29 -260 -100 -275 -146 -4 -11 -12 -20 -19 -20 -7
0 -21 -17 -32 -37 -10 -21 -25 -44 -31 -51 -7 -7 -13 -22 -13 -32 0 -10 -7
-26 -16 -35 -9 -8 -18 -35 -21 -58 -4 -23 -11 -45 -17 -49 -7 -5 -6 -8 4 -8
13 0 13 -1 0 -10 -13 -8 -15 -43 -14 -226 1 -134 5 -219 11 -223 6 -3 13 -30
16 -60 3 -30 12 -58 19 -62 10 -7 10 -9 -2 -9 -11 0 -12 -2 -3 -8 7 -4 15 -23
18 -42 14 -87 18 -100 26 -100 5 0 9 -7 9 -15 0 -28 34 -125 45 -125 5 0 21
-26 35 -58 13 -31 29 -62 35 -68 5 -6 19 -23 30 -38 23 -31 103 -116 109 -116
2 0 19 -14 37 -31 41 -39 93 -73 173 -117 34 -18 65 -37 71 -43 5 -5 17 -9 26
-9 9 0 34 -9 56 -19 21 -10 58 -24 83 -31 25 -7 54 -16 65 -20 78 -32 282 -40
354 -14 63 21 82 33 118 71 32 33 43 63 23 63 -5 0 -10 7 -10 15 0 8 5 15 10
15 6 0 10 11 10 25 0 14 -4 25 -10 25 -6 0 -10 50 -10 129 0 94 -3 131 -12
134 -10 4 -10 6 0 6 14 1 18 147 3 153 -7 3 -20 508 -21 823 0 121 5 110 -77
182 -67 60 -83 73 -91 73 -5 0 -23 11 -41 24 -19 14 -46 28 -62 31 -16 4 -29
10 -29 15 0 14 -151 72 -239 91 -98 22 -256 24 -341 5z"/>
</g>
</svg>
