<?xml version="1.0" standalone="no"?>
<!DOCTYPE svg PUBLIC "-//W3C//DTD SVG 20010904//EN"
 "http://www.w3.org/TR/2001/REC-SVG-20010904/DTD/svg10.dtd">
<svg version="1.0" xmlns="http://www.w3.org/2000/svg"
 width="1108.000000pt" height="1280.000000pt" viewBox="0 0 1108.000000 1280.000000"
 preserveAspectRatio="xMidYMid meet">
<metadata>
Created by potrace 1.15, written by Peter Selinger 2001-2017
</metadata>
<g transform="translate(0.000000,1280.000000) scale(0.100000,-0.100000)"
fill="#ffffff" stroke="none">
<path d="M1930 12790 c-827 -80 -1342 -593 -1600 -1594 -100 -388 -110 -670
-29 -827 l20 -41 -54 -57 c-109 -114 -196 -277 -240 -451 l-22 -85 0 -4455 0
-4455 23 -85 c65 -235 207 -432 408 -566 133 -88 265 -138 439 -164 48 -7
1093 -10 3380 -8 l3310 3 80 22 c182 50 327 129 453 247 175 165 267 328 312
548 19 91 20 140 20 895 l1 798 357 177 c196 97 445 225 552 284 1067 584
1587 1093 1716 1684 18 80 19 144 18 1065 0 985 -11 1441 -39 1740 -65 682
-248 1038 -628 1225 -167 82 -343 122 -597 135 -63 4 -335 36 -605 71 -269 36
-563 75 -653 86 l-162 22 0 306 c0 322 -8 427 -41 550 -26 96 -96 244 -154
326 -52 72 -153 177 -207 214 -35 23 -37 28 -42 95 -3 38 -8 142 -11 230 -17
486 -99 980 -212 1285 -196 525 -489 678 -1032 539 -63 -16 -222 -65 -355
-109 -392 -129 -554 -163 -761 -163 -167 0 -247 17 -450 98 -541 213 -1158
334 -2045 401 -241 18 -1010 27 -1150 14z m7074 -5225 c308 -36 583 -65 612
-65 l52 0 6 -42 c26 -174 29 -303 33 -1398 l4 -1165 -31 -46 c-88 -133 -339
-326 -715 -551 -161 -96 -526 -301 -558 -314 -16 -6 -17 105 -17 1820 l0 1826
28 0 c15 0 279 -29 586 -65z"/>
</g>
</svg>
