<?xml version="1.0" standalone="no"?>
<!DOCTYPE svg PUBLIC "-//W3C//DTD SVG 20010904//EN"
 "http://www.w3.org/TR/2001/REC-SVG-20010904/DTD/svg10.dtd">
<svg version="1.0" xmlns="http://www.w3.org/2000/svg"
 width="950.000000pt" height="1207.000000pt" viewBox="0 0 950.000000 1207.000000"
 preserveAspectRatio="xMidYMid meet">

<g transform="translate(0.000000,1207.000000) scale(0.100000,-0.100000)"
fill="#000000" stroke="none">
<path d="M0 6035 l0 -6035 4750 0 4750 0 0 6035 0 6035 -4750 0 -4750 0 0
-6035z m7065 5925 c1142 -22 1885 -80 1977 -152 36 -29 126 -368 177 -664 69
-410 91 -684 98 -1221 l6 -422 -27 -31 c-35 -42 -35 -98 0 -158 l26 -45 -11
-1636 c-19 -2719 -56 -4032 -127 -4506 -46 -312 -68 -525 -80 -775 -7 -168 8
-378 36 -495 46 -192 70 -510 51 -692 -17 -167 -43 -256 -97 -336 -257 -377
-1193 -671 -2348 -737 -226 -13 -772 -13 -981 0 -1095 67 -1967 319 -2288 660
-80 84 -119 157 -142 265 -24 114 -31 371 -14 536 19 179 17 215 -15 344 -50
200 -115 306 -270 443 -200 176 -623 419 -1086 622 -90 39 -191 85 -224 102
-534 270 -988 842 -1281 1614 -72 188 -107 308 -159 548 -105 475 -152 856
-163 1301 -17 708 117 1357 353 1712 280 421 677 661 1204 728 106 14 178 16
340 12 260 -7 424 -32 673 -103 74 -21 143 -34 176 -34 110 1 213 57 285 154
l36 49 0 118 c0 110 2 121 25 155 33 49 33 98 -1 148 l-26 39 5 446 c5 436 14
589 52 901 37 304 107 640 177 854 31 96 34 100 73 117 239 104 1953 171 3570
139z"/>
<path d="M1752 8310 c-230 -32 -435 -131 -585 -283 -262 -263 -406 -884 -367
-1582 22 -414 86 -843 180 -1215 154 -611 480 -1085 961 -1400 440 -288 889
-375 1132 -220 63 40 137 117 170 178 l26 48 -9 189 c-26 541 -48 1582 -56
2660 l-6 800 -72 95 c-95 128 -298 330 -423 423 -187 138 -399 242 -586 287
-94 23 -273 33 -365 20z"/>
</g>
</svg>
