<?xml version="1.0" encoding="utf-8"?>
<!-- Generator: Adobe Illustrator 18.0.0, SVG Export Plug-In . SVG Version: 6.00 Build 0)  -->
<!DOCTYPE svg PUBLIC "-//W3C//DTD SVG 1.1//EN" "http://www.w3.org/Graphics/SVG/1.1/DTD/svg11.dtd">
<svg xmlns="http://www.w3.org/2000/svg" xmlns:xlink="http://www.w3.org/1999/xlink" version="1.1" id="Слой_1" x="0px" y="0px" viewBox="326.1 26.1 949.5 1207.4" enable-background="new 326.1 26.1 949.5 1207.4" xml:space="preserve">
<path fill="#4EDD69" stroke="" stroke-width="2" stroke-linecap="round" stroke-linejoin="round" stroke-miterlimit="10" d="  M1257.1,308.9c0-2.3,0-3.5,0-3.5c-11.5-13.2,0-21.6,0-21.6c5.1-150.1-24.2-225.4-25.8-229.4c0.2-0.3,0.3,0.7,0.3,0.4  c0-10.7-125.4-18-280-18c-0.1,0-0.2,0-0.3,0c-0.1,0-0.2,0-0.3,0c-154.6,0-280,7.3-280,18c0,0.3,0.1-0.1,0.3,0.2  c-1.6,4-30.9,78.9-25.8,229c0,0,11.5,8.2,0,21.4c0,0,0,0.8,0,2.5c-0.4,0.8-0.6,1.5-0.6,2.3c0,0.8,0.2,1.6,0.6,2.3  c0,3.9,0,9.2,0,15.7c-6,11.7-18.4,25.5-43.3,20.4c0,0-154.3-56.7-230.9,65.1c0,0-65.1,95.5-12.9,313.5c0,0,36,155.6,152.5,205.3  c0,0,122.8,49.9,139.6,91.9c0,0,5.6,9.8,9.9,35.9c-2.4,15.6-6.1,49.7,0.2,74.4c8.2,49.8,134.9,90.7,290.2,90.7c0.1,0,0.3,0,0.4,0  c0.1,0,0.3,0,0.4,0c155.2,0,282-40.9,290.2-90.7c8.6-33.3-1.2-82.4-1.2-82.4c-11.8-35.2,1.7-121.6,1.7-121.6  c15.3-67.7,14.9-557.5,14.8-619.1c0.1-0.5,0.2-1,0.2-1.5C1257.4,310,1257.3,309.4,1257.1,308.9z M571.9,875.7  c0,0-113.3-27.3-148-162.1c0,0-50.4-186.3,11.5-276.5c0,0,28.8-40.9,89.9-35.7c0,0,65.5,4.2,120.6,82.7  c0.7,119.6,2.5,271.9,7.2,366.3C643.9,869.9,622.3,890.5,571.9,875.7z"/>
</svg>
