<?xml version="1.0" standalone="no"?>
<!DOCTYPE svg PUBLIC "-//W3C//DTD SVG 20010904//EN"
 "http://www.w3.org/TR/2001/REC-SVG-20010904/DTD/svg10.dtd">
<svg version="1.0" xmlns="http://www.w3.org/2000/svg"
 width="620.000000pt" height="636.000000pt" viewBox="0 0 620.000000 636.000000"
 preserveAspectRatio="xMidYMid meet">

<g transform="translate(0.000000,636.000000) scale(0.100000,-0.100000)"
fill="#ffffff" stroke="none">
<path d="M0 3180 l0 -3180 3100 0 3100 0 0 3180 0 3180 -3100 0 -3100 0 0
-3180z m3615 2435 c116 -3 239 -8 275 -10 36 -2 118 -6 183 -10 124 -7 134 -8
209 -26 l47 -11 20 -66 c11 -37 25 -92 30 -122 6 -30 13 -66 16 -80 6 -26 12
-71 20 -155 13 -124 17 -503 6 -509 -14 -9 -14 -53 0 -62 20 -12 -3 -2071 -26
-2324 -6 -75 -19 -185 -30 -275 -20 -151 -24 -255 -13 -320 35 -212 39 -274
22 -397 -12 -92 -92 -165 -256 -234 -79 -34 -168 -57 -341 -90 -43 -8 -95 -17
-115 -21 -20 -4 -235 -7 -477 -8 -387 0 -495 4 -555 20 -8 3 -33 7 -55 10 -22
3 -53 10 -70 15 -16 4 -64 16 -105 25 -76 17 -88 22 -192 69 -135 62 -195 124
-213 221 -7 39 -7 180 0 240 4 34 -20 147 -40 184 -24 45 -138 151 -163 151
-6 0 -12 4 -14 8 -6 14 -302 172 -322 172 -3 0 -41 16 -83 36 -119 55 -204
121 -329 257 -5 7 -35 48 -65 92 -105 153 -188 352 -230 552 -11 54 -22 105
-24 114 -2 9 -6 40 -10 70 -3 30 -8 61 -10 69 -7 28 -17 195 -18 290 0 104 8
203 24 295 6 33 12 69 13 80 5 26 40 130 60 177 46 107 179 252 272 297 27 12
56 26 64 31 51 25 158 48 265 56 71 5 109 2 274 -23 19 -3 51 -11 71 -18 61
-22 124 -14 167 21 35 28 38 36 41 85 1 30 8 64 14 77 9 18 9 28 0 42 -15 25
-16 319 -2 458 18 169 20 186 31 247 15 82 22 110 44 182 19 58 22 62 60 72
59 16 82 19 207 26 62 3 147 8 188 10 41 2 172 7 290 11 118 3 216 7 217 8 3
3 433 -3 628 -9z"/>
<path d="M1284 4145 c-105 -33 -177 -87 -222 -168 -38 -68 -79 -188 -87 -257
-12 -93 -13 -307 -4 -418 9 -100 12 -125 24 -182 3 -14 7 -38 10 -55 28 -166
107 -374 177 -466 163 -213 389 -349 581 -349 89 0 150 28 189 88 14 21 16 44
13 141 -6 161 -14 528 -21 976 l-6 380 -36 45 c-36 47 -142 150 -154 150 -4 0
-13 6 -20 14 -27 26 -128 78 -190 97 -73 22 -191 24 -254 4z"/>
</g>
</svg>
