<?xml version="1.0" standalone="yes"?>
<svg width="573" height="232">
<path style="fill:#fffc00; stroke:none;" d="M0 0L0 232L573 232L573 0L0 0z"/>
<path style="fill:#d5d300; stroke:none;" d="M368 16C359.203 15.9757 337.706 6.25339 337 19L338 19C345.701 11.73 357.793 18.7738 366.96 17.6821C374.247 16.8143 373.845 10.5397 382 15C378.535 8.50211 370.33 8.71619 368 16z"/>
<path style="fill:#5e5d00; stroke:none;" d="M356 18L356 19L361 19L361 23C367.425 22.1348 373.178 21.2947 374 14C378.448 14.7073 379.877 16.7478 381 21C382.617 16.9866 379.824 10.2753 374.429 12.6227C371.472 13.9093 371.542 17.8799 367.942 18.5926C364.331 19.3074 359.739 18.0103 356 18z"/>
<path style="fill:#000000; stroke:none;" d="M374 14C373.768 21.1289 367.821 24.6276 361 25.7755C346.014 28.2972 332.044 23.3843 318 30L318 31L340.09 34.8565L371 36C371 39.7212 372.276 46.5174 369.397 49.3966C366.256 52.5373 358.062 51 354 51C342.117 51 316.687 47.6425 310 60C323.695 62.6014 338.664 65.0212 352.91 62.8557C357.849 62.1051 364.428 55.6351 369.397 60.6034C373.376 64.5824 371 77.6903 371 83L379 83C379 76.8743 377.973 70.0865 385 68C385.187 58.8982 380.985 52.5398 380.148 43.9606C379.409 36.3842 387.869 15.0805 374 14z"/>
<path style="fill:#959300; stroke:none;" d="M371 15L364 18L364 19C367.15 18.9627 371.953 19.2419 371 15z"/>
<path style="fill:#898700; stroke:none;" d="M320 21L320 22L356 17C344.731 12.2714 331.824 21 320 21z"/>
<path style="fill:#454400; stroke:none;" d="M314 21L314 26L319 26L316 32L321 25L316 24L316 23C332.175 23.0446 350.219 27.6749 366 23L366 22L361 23L361 19L344.17 17.314L334 21.8912L314 21z"/>
<path style="fill:#807e00; stroke:none;" d="M356 17L356 18L364 18L356 17z"/>
<path style="fill:#292900; stroke:none;" d="M373 18C360.572 31.1158 331.982 23.0106 316 23L316 24L321 25L319 30C332.873 23.11 347.097 28.2833 362 25.7755C365.627 25.1652 373.986 22.4099 373 18z"/>
<path style="fill:#333300; stroke:none;" d="M380 18L382.809 31L380 48L381 48C381.094 36.8027 386.828 28.6679 380 18z"/>
<path style="fill:#acaa00; stroke:none;" d="M382 18L387.7 42L387.603 55.5702L396 59L396 64L398 64C397.745 56.3185 390.968 58.9529 389.318 52.9414C386.199 41.5798 392.699 26.883 382 18z"/>
<path style="fill:#b8b600; stroke:none;" d="M313 26L314 26L314 21L336 21C330.496 18.6903 310.977 17.1096 313 26z"/>
<path style="fill:#515000; stroke:none;" d="M382 21L383 25L384 25L382 21z"/>
<path style="fill:#757400; stroke:none;" d="M314 26C311.423 40.7711 344.11 36.8852 354 37.8302C357.742 38.1878 366.02 36.9991 367.168 42.115C368.391 47.5626 360.379 47.9544 357 47.9961C345.18 48.1421 329.161 46.0065 318 50.108C314.905 51.2454 307.913 53.29 306.238 56.2986C302.048 63.8227 317.953 65.9932 322 66L336 66L336 65C326.459 65 312.891 67.2346 308 57C322.104 52.3329 332.579 49.0248 348 49C352.767 48.9923 363.766 51.0276 367.397 47.3966C370.545 44.2485 369.243 37.343 364.811 36.2785C356.435 34.267 346.586 36.5424 338 35.9097C330.504 35.3573 323.657 32.158 316 32L319 26L314 26z"/>
<path style="fill:#6d6c00; stroke:none;" d="M384 26C383.993 35.4891 376.487 49.3283 387 56C387.076 46.8308 390.074 33.8949 384 26z"/>
<path style="fill:#d0ce00; stroke:none;" d="M389 30C389 37.2101 387.268 46.9336 389.318 53.8519C391.275 60.4557 399.629 56.428 396 66C398.445 64.2369 399.91 61.4386 398.396 58.3171C396.828 55.0857 392.155 56.4077 390.603 52.8519C387.585 45.9336 391.95 37.03 389 30z"/>
<path style="fill:#171700; stroke:none;" d="M318 31L318 32C324.747 32.8572 331.234 35.6531 338 35.9606C346.283 36.3372 355.809 34.4431 363.906 36.2785C369.021 37.4381 370.484 43.9333 366.682 47.4861C362.802 51.1117 355.847 50 351 50C339.513 50 328.954 49.3558 318 53L318 54L355 51L369.397 49.9722L371 36L342.015 34.9421L318 31z"/>
<path style="fill:#c4c200; stroke:none;" d="M321 35C326.421 42.5177 345.6 38.4689 354 39.5756C355.707 39.8006 367.899 40.7169 362.458 44.9769C356.413 49.7091 344.292 41.944 339 48C344.164 47.3474 365.026 49.4684 367.238 44.6867C369.52 39.7564 363.521 38.2189 360 38.0401C346.889 37.3745 333.947 35.8232 321 35z"/>
<path style="fill:#9f9d00; stroke:none;" d="M336 37L336 38L352 38L336 37z"/>
<path style="fill:#e6e300; stroke:none;" d="M354 40L354 42L363 42L363 44C351.663 44 340.816 46.9289 330 46.9992C324.695 47.0337 317.336 45.1898 315 51C329.426 44.0745 346.981 50.2561 361.768 45.6821C370.402 43.0113 356.482 40.0003 354 40z"/>
<path style="fill:#a4a300; stroke:none;" d="M342 47L342 48L364 48L342 47z"/>
<path style="fill:#a2a000; stroke:none;" d="M317 51L336 49C331.231 46.9989 320.033 46.3223 317 51z"/>
<path style="fill:#464600; stroke:none;" d="M339 49L339 50L364 50L339 49z"/>
<path style="fill:#474600; stroke:none;" d="M308 57C309.149 60.9986 311.096 62.6578 315 64L310 60L310 58L325 51C319.109 48.9572 313.047 54.5031 308 57z"/>
<path style="fill:#3e3d00; stroke:none;" d="M383 50L385 68L395 64L395 61C388.86 58.7228 385.991 55.654 383 50z"/>
<path style="fill:#c7c500; stroke:none;" d="M309 63L309 62C303.083 56.3056 309.942 54.2046 315 52C307.586 50.1726 299.384 59.4642 309 63z"/>
<path style="fill:#838200; stroke:none;" d="M387 57L387 58L395 61L395 64C381.403 65.8932 382.568 78.3365 380 89L378 89C375.915 85.5991 373.902 85.1269 370 85L370 86L374 92C389.268 91.5001 378.806 66.5511 396 66L396 59L387 57z"/>
<path style="fill:#191800; stroke:none;" d="M311 60L311 61C322.108 67.1104 342.459 64.9477 355 63.9421C358.204 63.6853 361.794 60.9458 364.941 61.7469C371.923 63.5237 366.613 76.6212 368.514 81.6559C369.986 85.5566 376.475 86.0668 380 87L383 68C377.723 71.0827 379 77.5803 379 83L371 83C371 78.1397 373.468 63.2525 369.397 60.0278C363.91 55.6824 357.127 62.0907 351.961 62.8557C338.238 64.8878 324.174 62.5025 311 60z"/>
<path style="fill:#535200; stroke:none;" d="M361 61L361 62C373.187 64.5219 360.191 79.591 370 85C366.719 76.438 373.139 61.3953 361 61z"/>
<path style="fill:#706e00; stroke:none;" d="M359 63L359 64L367 68C368.453 62.6359 363.026 61.9041 359 63z"/>
<path style="fill:#c5c200; stroke:none;" d="M309 63C309.654 66.0539 311.007 65.9358 314 66L314 65L309 63z"/>
<path style="fill:#464600; stroke:none;" d="M318 64L318 65L359 65C348.25 60.4892 329.696 64 318 64z"/>
<path style="fill:#9f9d00; stroke:none;" d="M344 65L345 70L346 70L346 66L365 66C365 72.4181 362.431 83.7024 370 86C364.454 79.282 369.452 72.5015 365.883 66.3179C363.408 62.0301 348.576 65 344 65z"/>
<path style="fill:#d5d300; stroke:none;" d="M314 66L314 67L316 70L331 70L331 88L332 88L335 67L314 66z"/>
<path style="fill:#a4a300; stroke:none;" d="M317 66L317 67L335 67L333 72L334 72L337 66L317 66z"/>
<path style="fill:#676600; stroke:none;" d="M333 88L334 88C334 83.6639 333.106 78.1144 334.742 74.0193C337.779 66.4167 343.255 70.5004 345 76L346 76L344 66C331.165 66.1528 333 78.3517 333 88z"/>
<path style="fill:#e7e500; stroke:none;" d="M346 66L353.397 75.2284L354 91L355 91C355 84.8432 357.835 72.3076 350 71L350 67L363 67L363 84L364 84L364 66L346 66z"/>
<path style="fill:#b4b200; stroke:none;" d="M364 66L364.6 84.7006L372 92C367.429 92 356.861 94.0228 354.603 88.8519C352.466 83.9566 356.311 76.767 352 73L354.603 91.9722L365.83 93.4699L392 97L409.941 98.858L417 113L418 113C416.084 87.4746 392.727 99.2204 375 95L375 94L380 93L380 92L374 92L365.603 81.9414L364 66z"/>
<path style="fill:#cac800; stroke:none;" d="M382 85L383 85C386.422 78.1921 385.357 70.719 393 67C385.092 64.334 383.177 79.7889 382 85z"/>
<path style="fill:#fffc00; stroke:none;" d="M350 67L350 71C357.715 73.3421 355 85.4581 355 92L372 92L364.175 83.8565L363 67L350 67z"/>
<path style="fill:#4b4b00; stroke:none;" d="M380 87L377 86L378 89L380 89L385 68C378.447 71.5787 380 80.5171 380 87z"/>
<path style="fill:#2f2f00; stroke:none;" d="M334 88L335 88L338 70L343 70C332.235 65.6594 334 81.9114 334 88z"/>
<path style="fill:#000000; stroke:none;" d="M338 70L334 98L317 98L317 100L331 101C328.553 108.748 316.775 104.72 311 110L311 111L341 110.942L351.996 108.166L378.985 110.981L392.999 108.005L415 112L412 109L412 102L400 102L400 98L378 102C374.506 92.0626 362.318 102.842 356.023 101.851C347.816 100.559 355.717 96.0507 360 96L360 95C343.91 94.8224 344.265 82.848 344 70L338 70z"/>
<path style="fill:#b8b600; stroke:none;" d="M346 70C346.729 73.4029 348.806 72.9865 352 73L352 72L346 70z"/>
<path style="fill:#9f9d00; stroke:none;" d="M332 73L332 88L333 88L332 73z"/>
<path style="fill:#898700; stroke:none;" d="M346 76L352 75L353.603 92.9722L368 94C364.199 91.81 357.622 94.9555 354.333 91.6667C350.48 87.8134 354.605 79.75 352.667 75.1111C351.124 71.4189 346.672 72.8648 346 76z"/>
<path style="fill:#373600; stroke:none;" d="M344 74C345.563 86.4366 344.212 94.946 360 95L360 96C356.113 96.0138 346.66 100.42 355.059 101.852C362.806 103.172 372.589 92.7382 378 102L400 98L400 97L366 94.1844L353.603 92.3966L352 75L344 74z"/>
<path style="fill:#e6e300; stroke:none;" d="M487 78L496.259 81.3441L504.436 82.4468L509.433 102.871L514 112L515 112C514.985 107.85 515.387 104.456 511 103C511 97.3673 513.447 86.1398 507 84C505.821 76.6147 500.572 79.4459 495 80C494.145 74.6367 489.9 72.7624 487 78z"/>
<path style="fill:#757400; stroke:none;" d="M488 104L489 104L489 78C492.498 79.9282 492.875 82.1224 493 86C493.973 83.6752 493.034 73.1259 489.023 77.662C485.172 82.0169 488 98.2876 488 104z"/>
<path style="fill:#d5d300; stroke:none;" d="M485 78L484 100L487 100L487 78L485 78z"/>
<path style="fill:#b8b600; stroke:none;" d="M487 78L487 104C475.877 104 457.053 108.93 457 94L455 94C455.011 110.737 475.111 105 488 105L487 78z"/>
<path style="fill:#464600; stroke:none;" d="M489 78C489 83.5893 491.812 100.549 486.682 103.972C483.912 105.821 479.169 105 476 105L476 106L490 106C490 98.5497 487.405 85.0653 492 79L489 78z"/>
<path style="fill:#d9d600; stroke:none;" d="M436 87L437 87C444.039 77.9687 452.755 80.5408 453 92C458.903 77.9315 439.588 73.8765 436 87z"/>
<path style="fill:#000000; stroke:none;" d="M490 79L488.972 104.566L479.17 107.299L457 110C456.032 106.579 453.2 104.282 452.317 100.91C450.12 92.5182 453.958 84.3545 442 84C440.758 95.4463 437.725 110.614 426 115L426 116L438 122C438 129.053 434.007 143.941 438.742 149.682C444.602 156.787 460.936 145.872 461.945 159.015C462.095 160.966 462.091 163.053 461.871 164.998C461.598 167.416 460.72 169.692 460 172C463.091 175.64 461.191 177.783 457 179C455.94 181.143 454.854 183.392 452.15 183.765C449.601 184.116 446.64 182.205 443.996 182.044C436.483 181.587 420.137 185.503 416 178L410 178C412.647 186.576 423.151 183.178 429.961 185.58C445.156 190.941 461.644 187.337 477.996 188.019C485.026 188.313 490.455 191.889 498 190.856C503.866 190.054 508.367 184.785 514.011 184.167C520.536 183.452 524.668 190.918 532 191L529 179C515.474 179 482.306 184.981 476 171L472 171C472 150.159 482.692 148 501 148L501 141C507.537 139.028 504.035 133.359 504.001 128C503.961 121.84 506.071 114.722 505.597 108.91C505.126 103.13 503 98.1007 503 92L502 92C501.871 102.884 496.459 99.1321 492.969 91.7145C491.216 87.9899 492 83.019 492 79L490 79z"/>
<path style="fill:#4f4d00; stroke:none;" d="M492 79L496 94C498.993 93.9358 500.346 94.0539 501 91L498 92L492 79z"/>
<path style="fill:#dfdc00; stroke:none;" d="M147 132L115 135C117.018 131.341 141.746 127.132 126 120C127.054 129.573 122.904 129.994 114 130L114 138L148 133C148 118.792 144.291 104.119 145.564 90.0039C146.444 80.2519 154.204 86.1838 157 91C158.878 85.0146 149.5 75.6086 145.028 83.1481C142.88 86.7687 144 92.9517 144 97C144 109.174 147 120.04 147 132z"/>
<path style="fill:#787600; stroke:none;" d="M500 90L497 89L498 92L500 92L501 82C506.825 85.2116 505.996 94.0469 506 100C510.285 89.7883 500.014 71.8334 500 90z"/>
<path style="fill:#989600; stroke:none;" d="M432 120L432 119C427.487 118.79 424.233 118.148 422 114C425.437 113.726 429.73 113.563 432.11 110.686C438.803 102.598 433.725 75.8281 452 85C450.31 79.9073 443.514 79.8481 439.684 83.1481C432.094 89.6894 435.395 98.1072 432.397 105.985C430.798 110.185 411.829 117.634 426.976 119.811C428.631 120.049 430.334 119.986 432 120z"/>
<path style="fill:#949200; stroke:none;" d="M494 81C494.228 85.8983 495.049 88.6147 500 90L500 82L494 81z"/>
<path style="fill:#d9d600; stroke:none;" d="M273 99C277.355 96.4812 278.755 85.4141 283 85.3457C288.042 85.2644 286.062 92.9405 288.603 95.3819C292.592 99.213 304.318 95.9237 307 92L290 95C289.999 88.1952 285.734 76.3866 277.603 85.7647C275.017 88.7486 274.829 95.1906 273 99z"/>
<path style="fill:#656300; stroke:none;" d="M347 82L346 89C349.777 87.735 349.569 85.666 349 82L347 82z"/>
<path style="fill:#595700; stroke:none;" d="M437 93L438 93C438.879 91.3325 439.718 89.616 440.75 88.034C450.387 73.264 451.787 102.835 454.318 104.968C459.049 108.953 469.199 107 475 107C469.743 104.794 461.994 108.137 457.434 104.258C454.314 101.604 450.113 67.5792 439.198 87.0146C438.093 88.9809 437.497 90.8294 437 93z"/>
<path style="fill:#474600; stroke:none;" d="M501 82L501 91L502 91L504 83L501 82z"/>
<path style="fill:#b2af00; stroke:none;" d="M92 88L93 88L100 85L100 83C95.735 83.1389 93.3029 83.708 92 88z"/>
<path style="fill:#6b6a00; stroke:none;" d="M148 135L135 136L135 137C138.731 137.01 145.412 138.948 148.427 136.382C152.396 133.005 150.806 126.414 150.285 122C148.881 110.096 149 97.9837 149 86L153 86L153 90C159.522 93.5609 161.429 94.7316 168 90L160.054 91.2531L149.314 83.8904L146.576 96L148 135z"/>
<path style="fill:#1c1c00; stroke:none;" d="M502 83L501 94L496 94L492 88C492.683 96.7648 501.949 106.323 502 92L503 92C503 97.5281 502.1 110.521 509 112L504 83L502 83z"/>
<path style="fill:#565400; stroke:none;" d="M504 83C504.005 90.3925 503.076 109.392 512 112L506.569 98.9853L504 83z"/>
<path style="fill:#7c7b00; stroke:none;" d="M280 92L281 92L281 86L285 86L285 96C288.682 87.2249 280.144 79.8824 280 92z"/>
<path style="fill:#5d5c00; stroke:none;" d="M84 99L82 99L80 89L78 89L79 112C67.5422 112 58.0446 114.073 48.4244 120.53C46.0438 122.128 39.7017 125.163 41.1613 128.759C44.3334 136.574 60.3501 134.16 67 135L65 146L66 146L72 131L72 130L42 129C44.8789 123.726 58.1246 115.97 64.0039 114.889C68.532 114.056 74.6939 115.211 78.8519 113.397C83.8987 111.194 83.5717 100.542 85.8187 96.0633C88.2481 91.2205 91.4663 93.7702 91.9414 98.0046C92.0882 99.3132 91.9972 100.681 92 101.995L92 108L94 108L93 92L97 92L95 87L100 87C99.9711 95.4386 98.1722 103.928 94 111L100 109C101.535 118.628 116.664 114.253 124 116C119.627 110.996 109.873 115.982 104.148 112.682C97.9118 109.088 101 91.3274 101 85C93.1616 85.0928 84.552 90.7803 84 99z"/>
<path style="fill:#8e8d00; stroke:none;" d="M101 86L101 112L102 112L101 86z"/>
<path style="fill:#b0ae00; stroke:none;" d="M146 86L146 97L147 97L146 86z"/>
<path style="fill:#333300; stroke:none;" d="M149 86L149 110L150 110L150 87L152 87C153.026 93.6278 163.23 99.3458 166 91L165 91C160.323 95.7528 157.894 91.6558 153 90L153 86L149 86z"/>
<path style="fill:#989600; stroke:none;" d="M279 86L270.318 103.174L270 144L271 144C271 132.184 268.24 116.483 271.318 105.09C273.324 97.6619 282.96 95.4581 279 86z"/>
<path style="fill:#000000; stroke:none;" d="M281 86L281 117L277 117L277 106L274 106L273.942 147L271 159C282.9 165.562 266.555 185.235 283 190C285.563 181.33 279.312 160.791 288 156L288 126L289.603 113.603L306 111L306 110C303.933 109.406 286.526 110.83 289.921 105.584C292.962 100.886 299.719 106.678 301 99L286 102L284 86L281 86z"/>
<path style="fill:#424200; stroke:none;" d="M284 86L286 99L284 86z"/>
<path style="fill:#9b9900; stroke:none;" d="M286 86C286.001 92.4524 285.248 97.7422 293 98L293 97C286.777 95.1946 288.088 90.9635 286 86z"/>
<path style="fill:#383700; stroke:none;" d="M441 86C435.751 97.0226 437.257 111.183 423 114L432 117L432 116L426 116L426 115C437.326 111.91 436.123 105.481 438.418 96C439.29 92.3974 441.994 89.7437 441 86z"/>
<path style="fill:#e9e600; stroke:none;" d="M75 108L68 108L68 111L58 111L58 112L76 112C76 105.105 72.9018 90.4584 81 88C72.124 84.6279 75 102.999 75 108z"/>
<path style="fill:#1c1c00; stroke:none;" d="M95 87L98 96L100 96L100 87L95 87z"/>
<path style="fill:#000000; stroke:none;" d="M150 87L150 124L152 124C152 118.499 151.276 112.401 152.483 107.005C152.82 105.5 154.095 101.286 156.454 102.921C160.791 105.927 158 124.996 158 130C150.516 132.272 155.498 138.807 151.397 143.427C145.238 150.365 142.895 142.119 144 137C135.516 137.006 124.07 142.246 116 140.227C111.128 139.008 104.884 131.743 111.148 128.028C114.35 126.129 119.421 127 123 127L121 118C112.952 118 99.6521 119.199 93.6034 112.593C91.1244 109.886 93.822 90.9359 88.375 92.7516C82.7549 94.6249 85.8737 110.241 77.9452 113.397C67.7791 117.442 46.6146 115.005 42 129L60 132L60 129C55.735 128.861 53.3029 128.292 52 124L77 126C72.8219 132.271 70.006 135.204 70 143C60.2904 146.225 62 163.97 62 172L64 172C64.0017 169.813 63.1141 163.289 66.1744 162.631C68.7439 162.079 71.6994 169.298 72.9298 170.981C78.3471 178.389 95.7621 185.407 100 173C95.945 172.953 93.4587 171.74 89.7145 170.545C86.313 169.459 81.3451 171.159 78.6042 168.397C75.8388 165.61 78.1721 161.937 78.7407 158.83C80.6836 148.217 96.1011 129.39 104.972 147.001C106.346 149.729 105.998 153.041 106 156L98 162L98 164L105 166L103 171L115 167C115 163.108 112.646 144.327 119.001 145.037C122.592 145.439 123.266 150.211 127.058 150.852C134.468 152.104 151.123 146.892 154 156C160.481 158.047 159 165.374 159 171C163.41 168.017 164.722 158.13 170 164L171 164L168 91C161.417 95.1516 154.678 96.5083 152 87L150 87z"/>
<path style="fill:#aba900; stroke:none;" d="M79 112L78 89L80 89L81 94L92 89L92 88L84 91L82 91C80.9758 88.6927 77.8409 86.5138 76.3333 90.1111C74.5829 94.2881 74.455 111.026 79 112z"/>
<path style="fill:#b8b600; stroke:none;" d="M158 91L158 92C161.351 91.892 166.776 88.843 169.415 91.4915C173.99 96.0831 172.99 110.879 173 117C173.037 139.9 177.31 167.826 169 189L162 186L158 193C161.991 193.93 171.394 192.934 173.397 188.62C175.949 183.121 174 173.005 174 167L174 114C174 107.242 175.856 96.0574 171.146 90.4336C167.446 86.0163 162.321 90.3567 158 91z"/>
<path style="fill:#d3d000; stroke:none;" d="M308 92L331 89C324.704 86.3579 312.487 86.6136 308 92z"/>
<path style="fill:#898700; stroke:none;" d="M331 88C322.195 90.6025 310.286 86.0786 305 96C311.737 94.1299 334.04 100.872 331 88z"/>
<path style="fill:#686700; stroke:none;" d="M332 88C329.498 97.1649 322.349 96.9877 314 95C318.798 100.491 336.412 98.5396 332 88z"/>
<path style="fill:#424100; stroke:none;" d="M333 88C332.864 99.5458 322.907 97 314 97L314 94L286 99L286 102L301 99L288 108L289 108L301 106L301 108L290 109L290 110C293.877 110 304.301 107.231 305 112L310 112L309 108C315.218 105.62 329.666 108.683 331 101L317 100L317 98L334 98L333 88z"/>
<path style="fill:#d3d000; stroke:none;" d="M435 88C430.788 93.855 432 101.065 432 108L433 108L435 88z"/>
<path style="fill:#858300; stroke:none;" d="M84 94L85 94L92 90C87.9005 88.3418 85.453 90.0481 84 94z"/>
<path style="fill:#dfdc00; stroke:none;" d="M381 89L375 94L375 95L411 96L411 95L378 95L378 94C380.749 93.042 381.801 91.9083 381 89z"/>
<path style="fill:#252400; stroke:none;" d="M166 90L166 91C169.996 96.2741 168 106.577 168 113C168 130.547 171 146.576 171 164L170 164C165.728 156.303 162.493 167.7 159 171C159 165.946 160.736 158.017 155 156L158 191L160 191L161.313 174.015L165 162L168 162L168 166L172 166L169 90L166 90z"/>
<path style="fill:#898700; stroke:none;" d="M169 90L172 140L173 140L172.17 105L169 90z"/>
<path style="fill:#161600; stroke:none;" d="M78 91L79 97L80 97L80 91L78 91z"/>
<path style="fill:#7b7a00; stroke:none;" d="M93 92L93 100L94 100L94 93L96 93L94 109C100.123 106.539 98 97.5793 98 92L93 92z"/>
<path style="fill:#b8b600; stroke:none;" d="M102 92L102 113L124 113L124 112C119.22 112 107.042 114.2 104.028 109.682C100.835 104.898 104.218 97.2857 102 92z"/>
<path style="fill:#565400; stroke:none;" d="M280 92L272.318 105.225L272 144L273 144C273 133.085 270.443 118.52 273.434 108.019C275.297 101.478 283.496 100.411 280 92z"/>
<path style="fill:#b5b300; stroke:none;" d="M507 92L508 104L509 104L509 92L507 92z"/>
<path style="fill:#b1af00; stroke:none;" d="M94 93L94 101L96 101L96 93L94 93z"/>
<path style="fill:#e7e500; stroke:none;" d="M455 93L455 94C456.909 96.5188 456.202 101.072 458.603 102.972C463.729 107.028 480.548 104 487 104L487 103L459 103C458.988 98.7619 459.533 94.5939 455 93z"/>
<path style="fill:#706f00; stroke:none;" d="M82 94L82 99L84 99L84 94L82 94z"/>
<path style="fill:#787600; stroke:none;" d="M279 94L271.603 103.3L271 119L270 152L271 152L272.148 107.044L279 94M435 94L434 108L435 108L435 94z"/>
<path style="fill:#252500; stroke:none;" d="M85 95L82 109L83 109L85 95z"/>
<path style="fill:#d5d300; stroke:none;" d="M103 95L104.028 110.397L124 112L124 111L106 111C106 105.781 107.647 98.3516 103 95z"/>
<path style="fill:#696800; stroke:none;" d="M286 96C286.729 99.4029 288.806 98.9865 292 99L292 98L286 96z"/>
<path style="fill:#aba800; stroke:none;" d="M293 96L293 97L304 97L293 96z"/>
<path style="fill:#787600; stroke:none;" d="M293 97L293 98L304 98L293 97z"/>
<path style="fill:#898700; stroke:none;" d="M400 97L400 98L408 98L400 97z"/>
<path style="fill:#5a5800; stroke:none;" d="M169 98L171 139L172 139C172 126.205 174.027 109.976 169 98z"/>
<path style="fill:#615f00; stroke:none;" d="M400 98L400 99L410.5 101.306L415 109C412.625 99.1685 410.016 98 400 98z"/>
<path style="fill:#d3d000; stroke:none;" d="M268 144L269 144C269 132.876 264.345 107.798 273 100C267.346 98.8112 268.002 106.162 268 110L268 144z"/>
<path style="fill:#292900; stroke:none;" d="M280 99L274 106C277.825 108.48 277 112.808 277 117L281 117L280 99M400 99L400 102L411 102L400 99z"/>
<path style="fill:#cdca00; stroke:none;" d="M188 104L189 104L190 101L194 103C191.775 99.5991 189.232 100.293 188 104z"/>
<path style="fill:#353400; stroke:none;" d="M151 132C159.336 126.723 158.004 119.932 158 111C157.999 108.86 158.906 102.521 155.826 101.921C153.005 101.372 152.38 106.211 152.174 108.001C151.287 115.735 151.021 124.212 151 132z"/>
<path style="fill:#a3a100; stroke:none;" d="M190 101L187 108C180.241 106.606 176.598 110.299 176.09 117.001C175.117 129.858 176 143.105 176 156L177 156C177 144.944 171.237 108.424 188 110L190 103L197 112C198.506 107.198 194 103.027 190 101z"/>
<path style="fill:#b5b300; stroke:none;" d="M269 102L268 160L269 160L270 120L269 102z"/>
<path style="fill:#787600; stroke:none;" d="M317 102L317 104L327 104L327 102L317 102z"/>
<path style="fill:#565400; stroke:none;" d="M154 103L153 127C159.276 125.164 158.965 106.247 154 103z"/>
<path style="fill:#403f00; stroke:none;" d="M190 103L196 110L190 103z"/>
<path style="fill:#d1cf00; stroke:none;" d="M187 104L182 105L187 108L187 104z"/>
<path style="fill:#aaa800; stroke:none;" d="M146 105L147 116L148 116L146 105z"/>
<path style="fill:#202000; stroke:none;" d="M309 108C311.096 114.316 321.505 112 327 112L384 112L384 111L351.996 108.063L341 110.856L311 111L311 110L317 106L309 108z"/>
<path style="fill:#898700; stroke:none;" d="M458 105L458 106L476 106L458 105z"/>
<path style="fill:#605e00; stroke:none;" d="M189 106L188 110C179.358 108.497 177.632 114.257 177.09 122C176.118 135.868 177 150.097 177 164L179 164C178.97 153.164 172.704 128.125 181 120L182 129C187.452 125.482 191.563 112.121 189 106z"/>
<path style="fill:#000000; stroke:none;" d="M190 106L185.278 124L182 141L180 122L179 122L179 164L182 164L183 175C190.034 174.921 189.697 170.852 195.144 168.6C202.125 165.712 225.574 165.82 231 171C236.165 165.362 243.924 167 251 167L251 166C246.044 165.842 242.692 163.05 238 162.228C229.457 160.73 219.669 162 211 162C207.308 162 200.58 163.28 198.179 159.682C196.138 156.623 197 151.484 197 148C197 139.286 196 130.719 196 122C196 115.292 196.859 109.306 190 106z"/>
<path style="fill:#292900; stroke:none;" d="M273 106L270 162C276.544 165.609 274 177.436 274 184L275 184C275 177.699 278.065 161.345 271 159C273.093 144.31 279.103 120.544 273 106z"/>
<path style="fill:#747200; stroke:none;" d="M289 106L289 109L301 108L301 106L289 106z"/>
<path style="fill:#292900; stroke:none;" d="M457 107L457 110L488 107L457 107z"/>
<path style="fill:#bab800; stroke:none;" d="M511 106L514 112L513 106L511 106z"/>
<path style="fill:#191800; stroke:none;" d="M92 108C92.901 119.809 112.348 118 121 118L123 127L110 127L110 128L124 128C124 124.82 125.218 118.262 122.397 116.028C115.616 110.658 103.33 120.479 100 109L92 108z"/>
<path style="fill:#3a3900; stroke:none;" d="M384 112C388.223 111.986 392.92 110.038 396.961 110.543C402.719 111.263 415.217 119.271 417 109L415 112C407.775 111.999 387.201 102.356 384 112z"/>
<path style="fill:#dfdc00; stroke:none;" d="M418 108L418 113C387.339 120.229 356.414 114 325 114L301 114C298.289 114.001 293.985 113.286 291.988 115.603C288.029 120.2 290 131.389 290 137C290 148.865 290.954 161.188 289.83 173C289.177 179.861 286.213 186.26 286 193L287 193L290.772 182L291.019 128L294 115L356 115.055L372 118L405 117.985L420 117L422 112L419 113L418 108z"/>
<path style="fill:#787600; stroke:none;" d="M154 109L154 124L156 124L156 109L154 109z"/>
<path style="fill:#565400; stroke:none;" d="M196 110L196 136L198 136C198 128.506 200.336 116.347 196 110z"/>
<path style="fill:#828100; stroke:none;" d="M392 114L372 114L372 116L415 115C409.881 112.851 394.111 107.642 392 114z"/>
<path style="fill:#5a5800; stroke:none;" d="M347 111L347 112L356 112L347 111z"/>
<path style="fill:#bbb800; stroke:none;" d="M50 119L67 113C60.2806 110.18 53.4597 112.749 50 119z"/>
<path style="fill:#dfdc00; stroke:none;" d="M174 112L174 187L175 187L176 136L174 112z"/>
<path style="fill:#605e00; stroke:none;" d="M288 136L289 136L289 114L347 113C335.544 108.193 315.468 112 303 112C299.524 112 291.468 110.522 289.028 113.603C285.638 117.883 288 130.679 288 136z"/>
<path style="fill:#9f9d00; stroke:none;" d="M313 113L313 114L364 114C350.367 108.226 327.807 113 313 113z"/>
<path style="fill:#565400; stroke:none;" d="M356 112L356 113L392 114L392 112L356 112z"/>
<path style="fill:#333300; stroke:none;" d="M504 112L504 136L505 136L506 112L504 112z"/>
<path style="fill:#5a5800; stroke:none;" d="M512 138L512 137C504.387 133.46 502.998 118.878 509 113C504.778 112.052 505.023 116.832 505.001 120C504.951 127.258 502.395 137.681 512 138z"/>
<path style="fill:#a3a100; stroke:none;" d="M512 136L512 135C506.856 130.608 507.445 117.861 512 113C503.893 110.844 502.076 135.227 512 136z"/>
<path style="fill:#8d8c00; stroke:none;" d="M51 118L51 119L64 114C58.6784 111.792 55.4771 115.629 51 118z"/>
<path style="fill:#898700; stroke:none;" d="M105 113L105 114L124 114L124 124L126 124C125.998 109.883 116.633 113 105 113z"/>
<path style="fill:#9f9d00; stroke:none;" d="M293 113L293 114L308 114L293 113z"/>
<path style="fill:#b2b000; stroke:none;" d="M198 114L198 136L201 136C201 130.187 202.891 117.727 198 114z"/>
<path style="fill:#a5a300; stroke:none;" d="M289 114L286 187C291.038 182.066 290 171.687 290 165C290 148.404 287.82 130.155 292 114L289 114z"/>
<path style="fill:#c4c200; stroke:none;" d="M363 114L363 115L372 116L372 114L363 114z"/>
<path style="fill:#696800; stroke:none;" d="M422 114C423.626 119.02 430.457 119.966 435 122L422 114z"/>
<path style="fill:#cfcd00; stroke:none;" d="M509 115C509 123.905 505.484 133.865 516 137L510 133L509 115z"/>
<path style="fill:#b5b300; stroke:none;" d="M372 116L372 117L408 117C398.44 112.989 382.387 116 372 116z"/>
<path style="fill:#b2b000; stroke:none;" d="M148 117L148 132L149 132L148 117z"/>
<path style="fill:#c9c700; stroke:none;" d="M420 117C422.829 122.256 430.257 120.244 432.397 125.148C436.487 134.522 425.598 148.573 438 154L433.142 122.318L420 117z"/>
<path style="fill:#605e00; stroke:none;" d="M486 137L486 136C478.115 136.163 466.691 140.607 459.189 137.397C453.924 135.143 453.593 126.005 458.148 122.938C463.699 119.201 473.637 121 480 121L485 129C487.896 115.421 462.57 116.586 456.318 121.742C448.447 128.234 455.503 138.39 463 139.424C466.086 139.849 468.927 140.097 472 139.406C476.657 138.359 481.369 138.102 486 137z"/>
<path style="fill:#202000; stroke:none;" d="M451 136L454 136C454 121.812 458.461 120 472 120C467.378 118.061 455.061 117.267 452.028 122.228C449.855 125.782 451 131.986 451 136z"/>
<path style="fill:#c5c300; stroke:none;" d="M37 126C38.8926 130.683 40.7488 133.592 46 134C40.3489 125.271 43.687 127.933 48 120L37 126z"/>
<path style="fill:#403f00; stroke:none;" d="M178 123L182 141C186.224 138.262 185 132.57 185 128L182 129L181 120L178 123z"/>
<path style="fill:#2e2d00; stroke:none;" d="M482 120C484.007 126.103 489.117 131.089 484 137C493.51 140.024 489.788 122.375 482 120z"/>
<path style="fill:#9c9a00; stroke:none;" d="M455 135L456 135C456.044 119.795 468.063 122 480 122C475.011 119.907 459.421 119.052 456.028 124.303C454.203 127.128 455 131.791 455 135z"/>
<path style="fill:#a4a300; stroke:none;" d="M434 122L435 136L436 136L436 122L434 122z"/>
<path style="fill:#565400; stroke:none;" d="M436 122L436 148L437 148L438 122L436 122z"/>
<path style="fill:#fffc00; stroke:none;" d="M480 122L469 122.001C466.679 122.012 464.297 121.963 462.019 122.483C457.342 123.551 454.239 131.516 458.603 134.972C462.186 137.81 480.81 137.46 482.825 132.772C484.115 129.768 480.476 125.156 480 122z"/>
<path style="fill:#202000; stroke:none;" d="M178 123L178 156L179 156L178 123z"/>
<path style="fill:#565400; stroke:none;" d="M52 124C52.802 128.805 55.5658 128.947 60 129L60 128L54 128L54 126L75 126C71.1025 121.54 57.715 124 52 124z"/>
<path style="fill:#616100; stroke:none;" d="M124 124L124 128L126 128L126 124L124 124z"/>
<path style="fill:#8e8d00; stroke:none;" d="M126 124L124 128L124 129C127.065 127.982 127.886 126.761 126 124z"/>
<path style="fill:#e7e500; stroke:none;" d="M371 131C358.115 131 344.861 131.908 332.015 130.945C328.417 130.676 325.559 128.363 321.989 128.127C318.094 127.87 310.273 130.792 308.179 134.228C301.367 145.407 310.991 163.412 311 175C307.172 175.431 305.19 176.229 304 180L312 177C312 165.455 304.789 146.439 310.457 136.059C312.113 133.025 317.533 129.599 321.09 129.597C324.123 129.596 326.904 131.694 330 131.942C343.815 133.05 358.137 132 372 132C373.228 126.112 375.878 126.799 379 131C380.026 129.62 381.601 126.472 383.79 127.345C386.775 128.535 385.28 133.138 387.603 134.972C391.427 137.991 405.364 132.905 405.364 141.035C405.364 149.752 391.784 137.811 389.438 146.059C387.331 153.462 394.515 153.627 396.353 159.058C397.87 163.539 395 171.95 395 177C401.617 172.325 399.577 154.339 391 153L391 146C395.961 146.392 402.07 148.271 406.852 146.106C412.058 143.75 409.225 137.239 404.981 135.603C400.674 133.944 394.56 135 390 135C389.741 130.277 384.691 119.883 380 127L378 127C374.576 121.773 371.477 126.764 371 131z"/>
<path style="fill:#706e00; stroke:none;" d="M54 126L54 128C60.7226 128.436 70.7532 133.702 75 126L54 126z"/>
<path style="fill:#bdba00; stroke:none;" d="M480 125C481.765 129.182 483.765 131.56 480 135L480 136C487.773 134.341 486.088 127.833 480 125z"/>
<path style="fill:#a3a200; stroke:none;" d="M61 127L61 128L72 129L72 126L61 127z"/>
<path style="fill:#2f2f00; stroke:none;" d="M75 126L69 131L66 146L67 146L70 143L77 126L75 126z"/>
<path style="fill:#a19f00; stroke:none;" d="M372 131L373 131L374 128L376 128L381 134C381.44 131.211 381.932 128.762 385 130L386 130C384.199 124.54 381.033 127.222 379 131C376.594 126.525 373.308 124.991 372 131z"/>
<path style="fill:#b5b300; stroke:none;" d="M456 126C456.002 142.671 467.133 137.107 480 137L480 136L458.603 134.397L456 126z"/>
<path style="fill:#181800; stroke:none;" d="M157 127C153.483 129.935 144.617 150.747 145 139C139.98 143.326 144.256 147.78 149.852 145.141C152.042 144.108 157.46 128.887 157 127z"/>
<path style="fill:#454400; stroke:none;" d="M114 140L110 129L124 129C114.035 124.818 101.409 131.392 114 140z"/>
<path style="fill:#272600; stroke:none;" d="M278 128C276.792 132.089 276.084 136.461 280 139L280 128L278 128z"/>
<path style="fill:#464500; stroke:none;" d="M374 128L372 133L373 133L376 130L378 137L382 130L384 130L384 136L385 136L385 128C381.679 129.099 381.263 130.59 381 134L376 128L374 128z"/>
<path style="fill:#9f9d00; stroke:none;" d="M110 129L114 138L114 130L124 130L110 129z"/>
<path style="fill:#b8b600; stroke:none;" d="M318 129L318 131L372 133C361.171 128.456 343.741 132.465 332 131.981C327.073 131.778 322.981 129.158 318 129z"/>
<path style="fill:#828100; stroke:none;" d="M486 129L483 135L483 136C486.458 134.784 487.317 132.402 486 129z"/>
<path style="fill:#191800; stroke:none;" d="M374 130C367.475 137.834 341.895 135.588 332 134.91C327.423 134.597 319.402 132.024 315.603 135.742C311.074 140.176 316.016 146.494 316.644 151.09C317.091 154.366 314.675 156.83 314.442 159.961C314.088 164.727 316.044 170.736 316 176L318 176L315 138L318 135L333 137.892L358 135.144L375 134C377.044 137.323 379.588 138.681 382 135L378 137L376 130L374 130z"/>
<path style="fill:#000000; stroke:none;" d="M382 130C381.82 135.517 379.587 138.919 375 134L335 137.956L318 135L315 138C315.434 151.433 326.886 177.788 306 182L306 184L319 184L319 191C324.045 191.004 327.605 190.924 331 195L332 195L332 188L388 191L388 190C384.968 186.35 388.282 184.761 392 184L391 173C379.939 171.236 382.959 142.971 393 140L393 138C386.875 137.927 384.349 136.352 384 130L382 130z"/>
<path style="fill:#6f6e00; stroke:none;" d="M385 130L385 137L390 137L390 136L385 130z"/>
<path style="fill:#898700; stroke:none;" d="M313 164L314 164L316 150C305.665 143.962 315.252 132.563 324 132C304.799 124.018 309.402 154.602 313 164z"/>
<path style="fill:#5a5800; stroke:none;" d="M317 133L317 134L352 135C345.076 132.094 324.132 130.951 317 133z"/>
<path style="fill:#989600; stroke:none;" d="M135 136L148 135L148 133C143.111 133 138.61 132.314 135 136z"/>
<path style="fill:#898700; stroke:none;" d="M329 133L329 134L352 134L329 133z"/>
<path style="fill:#605e00; stroke:none;" d="M352 133L352 134L372 134L352 133z"/>
<path style="fill:#ccc900; stroke:none;" d="M55 134L55 135L64 141L65 141C64.0947 135.323 60.1609 134.671 55 134z"/>
<path style="fill:#a09f00; stroke:none;" d="M58 134L58 135C62.061 135.633 63.8505 137.034 65 141L67 141L67 135L58 134z"/>
<path style="fill:#4d4c00; stroke:none;" d="M316 150L316 156L317 156C316.974 148.752 310.915 140.959 317 135C310.153 133.511 310.333 148.007 316 150z"/>
<path style="fill:#302f00; stroke:none;" d="M149 135L144 138C144.887 148.326 151.587 142.682 149 135z"/>
<path style="fill:#9f9d00; stroke:none;" d="M121 136L121 137L135 137L121 136z"/>
<path style="fill:#333200; stroke:none;" d="M197 136L197 146L198 146L199 136L197 136z"/>
<path style="fill:#787600; stroke:none;" d="M199 136C198.945 142.103 193.788 154.043 198.028 159.397C200.147 162.073 206.02 161 209 161L240 161L240 160L199 160L201 136L199 136z"/>
<path style="fill:#5a5800; stroke:none;" d="M287 136L287 147L288 147L287 136z"/>
<path style="fill:#adab00; stroke:none;" d="M390 136L390 137C396.783 137.001 401.239 137.046 404 144L397 144C401.018 145.682 409.724 143.15 404.396 137.894C401.168 134.71 394.129 136 390 136z"/>
<path style="fill:#797800; stroke:none;" d="M435 136C435 143.027 432.82 152.3 442 153L442 152C435.311 147.134 437.753 142.56 435 136z"/>
<path style="fill:#7f7e00; stroke:none;" d="M511 136L512 140C508.308 140.12 506.223 140.313 505 144L506 144L516 137L511 136z"/>
<path style="fill:#636200; stroke:none;" d="M114 140L135 138C129.961 135.886 117.552 135.335 114 140z"/>
<path style="fill:#b5b300; stroke:none;" d="M309 137L309 156L310 156L309 137z"/>
<path style="fill:#4c4b00; stroke:none;" d="M385 137L385 138L393 138L385 137z"/>
<path style="fill:#696700; stroke:none;" d="M393 137L393 138L394 141L404 143C401.76 137.478 398.593 137.02 393 137z"/>
<path style="fill:#cac800; stroke:none;" d="M516 137L512 141L512 142L518 141L516 137z"/>
<path style="fill:#2d2d00; stroke:none;" d="M114 140L114 141L132 139L114 140z"/>
<path style="fill:#3a3900; stroke:none;" d="M393 138C390.794 139.973 388.235 141.391 386.724 144.058C383.08 150.489 381.874 172.289 391 173L391 177L392 177C391.565 166.898 385.025 155.111 389.032 145.058C390.251 142.001 393.337 140.701 395 138L393 138z"/>
<path style="fill:#2d2d00; stroke:none;" d="M458 139L458 142L484 139L458 139z"/>
<path style="fill:#1f1e00; stroke:none;" d="M501 141L501 148C490.811 148 479.717 145.618 474 156L484.104 149.407L500.852 149.106L512 140L512 138L501 141z"/>
<path style="fill:#3e3d00; stroke:none;" d="M88 144L89 144C97.5052 135.316 104.972 147.988 105 156C109.812 144.533 91.7044 132.839 88 144z"/>
<path style="fill:#605e00; stroke:none;" d="M172 140L172 164L173 164L172 140z"/>
<path style="fill:#989600; stroke:none;" d="M64 141L59 168L61 168L64 141z"/>
<path style="fill:#8d8c00; stroke:none;" d="M84 160C79.7873 147.337 92.3594 141.528 102 146C95.1604 127.682 73.4175 157.732 84 160z"/>
<path style="fill:#878600; stroke:none;" d="M389 145L390 145C393.858 141.219 398.985 143.945 404 144C399.424 141.433 391.157 138.5 389 145z"/>
<path style="fill:#e6e300; stroke:none;" d="M506 142L506 145C514.254 145 521.971 144.456 526 153L527 153L526 145L518 141L506 142z"/>
<path style="fill:#fffc00; stroke:none;" d="M91.456 142.989C78.1949 149.788 84.9763 168.586 98.7222 159.972C106.716 154.963 100.819 138.189 91.456 142.989z"/>
<path style="fill:#5a5800; stroke:none;" d="M504 142L509 151L488 151L488 152L522 152L504 142z"/>
<path style="fill:#484700; stroke:none;" d="M84 148L85 148L88 145L84 148z"/>
<path style="fill:#171700; stroke:none;" d="M115 164L116 164L118 145L121 152L152 152C144.089 148.68 133.973 153.722 126.144 150.397C123.075 149.093 120.864 142.082 116.603 145.198C112.949 147.871 115 159.887 115 164z"/>
<path style="fill:#757400; stroke:none;" d="M118 145L117 164L118 164C118.013 147.504 139.405 154 152 154L152 153L121 152L120 145L118 145z"/>
<path style="fill:#3a3900; stroke:none;" d="M504 145C500.764 151.013 494.015 150 488 150L488 151L509 151L504 145z"/>
<path style="fill:#c6c400; stroke:none;" d="M507 145L507 146L524 149C519.477 144.105 513.201 145 507 145z"/>
<path style="fill:#4b4a00; stroke:none;" d="M64 146L61 171L62 171L64 146z"/>
<path style="fill:#878500; stroke:none;" d="M102 146L101 159L102 159C104.808 154.54 105.515 151.125 104 146L102 146z"/>
<path style="fill:#b5b300; stroke:none;" d="M200 146L199 160L204 160L204 159L201 159L200 146z"/>
<path style="fill:#646300; stroke:none;" d="M388 146L391.956 177L389.16 188.377L396 186L396 192L397 192L397 185C392.107 182.302 393.332 177.939 392.829 173C392.036 165.194 391.183 153.089 388 146z"/>
<path style="fill:#898700; stroke:none;" d="M509 146L522 152C512.406 152 502.584 152.616 493.015 151.946C488.051 151.598 483.448 147.91 481 154C490.819 151.662 501.944 153 512 153C516.7 153 522.261 154.241 524 149L509 146z"/>
<path style="fill:#2a2800; stroke:none;" d="M91 170L91 169L80 169L80 165L84 165C82.1892 157.705 81.1555 155.276 84 148C79.2527 149.441 74.539 163.985 78.0278 168.397C80.3675 171.355 87.6524 170 91 170z"/>
<path style="fill:#605e00; stroke:none;" d="M288 148L288 156L289 156L288 148z"/>
<path style="fill:#565400; stroke:none;" d="M339 148L339 149C345.565 149 363.737 146.773 368.142 152.318C372.174 157.394 370 168.875 370 175C371.328 171.834 371 168.419 371 165C371 161.004 372.345 153.881 369.972 150.434C366.024 144.697 345.396 148 339 148z"/>
<path style="fill:#757400; stroke:none;" d="M336 154L337 154C342.167 148.982 349.26 150 356 150C350.126 147.535 338.482 147.248 336 154z"/>
<path style="fill:#434200; stroke:none;" d="M492 175L492 174C488.614 173.998 483.255 174.802 481.028 171.566C476.562 165.078 479.628 150.646 488 150C482.727 147.805 474.042 153.792 472.434 159.105C469.025 170.365 482.497 179.026 492 175z"/>
<path style="fill:#b8b600; stroke:none;" d="M524 149C519.8 156.616 499.837 152.999 492 153C489.197 153 484.025 152.082 482.028 154.603C479.694 157.55 481 164.435 481 168L482 168L483.603 155.603L496 154L526 153L524 149z"/>
<path style="fill:#151500; stroke:none;" d="M344 179L344 178C339.308 178 332.813 179.145 329.603 174.852C325.791 169.752 325.413 151.394 335 156L336 152C324.13 147.061 323.487 170.61 328.603 176.682C331.808 180.485 339.571 179 344 179z"/>
<path style="fill:#c4c200; stroke:none;" d="M339 152L339 153L356 152L356 150L339 152z"/>
<path style="fill:#989600; stroke:none;" d="M356 150L356 152L369 153C366.262 148.776 360.57 150 356 150z"/>
<path style="fill:#292900; stroke:none;" d="M371 150C371 156.164 373.543 169.758 369.397 174.682C365.321 179.522 351.844 178.999 346 179L346 182C352.682 182 367.032 181.61 372.258 177.012C376.664 173.134 374.513 155.119 373 150L371 150z"/>
<path style="fill:#c6c300; stroke:none;" d="M84 151L82 157L83 157L84 151z"/>
<path style="fill:#939100; stroke:none;" d="M338 151L336 159L330 159C330 163.513 328.485 171.819 331.858 175.397C334.041 177.712 338.155 176.913 341 177.039C347.689 177.336 363.837 181.897 368.972 175.397C372.248 171.25 370 159.138 370 154L369 154C369 158.979 371.148 170.635 367.397 174.397C363.959 177.843 355.319 176.788 351 176.285C339.146 174.906 331.311 175.611 331 161C337.393 160.506 337.176 156.025 341 152L338 151z"/>
<path style="fill:#464600; stroke:none;" d="M116 152C116 162.924 113.145 164.821 107 173C116.329 170.458 119.637 160.666 116 152M132 152L132 153C137.11 153 146.27 151.238 150.721 154.028C160.446 160.123 157 183.517 157 193C160.321 191.901 160.737 190.41 161 187L160 187L160 191L158 191L154 152L132 152z"/>
<path style="fill:#605e00; stroke:none;" d="M269 152L269 160L270 160L269 152z"/>
<path style="fill:#fffc00; stroke:none;" d="M331 161C331.036 165.247 331.002 171.093 334.649 174.062C340.714 178.999 361.084 178.316 366.397 172.352C368.923 169.517 369.593 156.559 366.397 154.028C364.043 152.163 358.88 152.803 356 152.424C352.396 151.951 348.63 151.775 345.001 152.094C337.93 152.715 337.691 159.942 331 161z"/>
<path style="fill:#b8b600; stroke:none;" d="M356 152L356 153C359.113 153 363.972 152.179 366.397 154.603C372.664 160.871 366.98 172.919 360 175C370.867 179.549 372.55 159.384 367.972 153.603C365.738 150.782 359.18 152 356 152z"/>
<path style="fill:#4c4b00; stroke:none;" d="M442 152L442 153L460 153L442 152z"/>
<path style="fill:#d5d300; stroke:none;" d="M113 173C120.123 168.76 121.994 162.918 122 155L152 158C148.721 152.942 133.05 154.017 127 153.286C124.596 152.996 120.764 152.412 119.028 154.603C116.906 157.282 118.463 161.865 117.683 164.985C116.924 168.022 114.415 170.279 113 173z"/>
<path style="fill:#4c4a00; stroke:none;" d="M352 179L352 178C341.223 177.819 323.004 176.527 329.333 160.028C330.859 156.05 335.06 159.364 336 155C334.229 154.675 331.277 153.119 329.589 154.167C326.056 156.361 327.207 172.838 329.603 175.682C333.215 179.968 346.681 178.985 352 179z"/>
<path style="fill:#9f9d00; stroke:none;" d="M438 153L438 154L448 154L438 153z"/>
<path style="fill:#757400; stroke:none;" d="M448 153L448 154L460 154L448 153z"/>
<path style="fill:#a4a300; stroke:none;" d="M134 154L134 155C138.348 155 148.192 153.152 150.972 157.318C153.812 161.574 150.112 166.831 155 170L153 154L134 154z"/>
<path style="fill:#898700; stroke:none;" d="M390 154L393 184L394 184C394 173.156 399.568 161.431 390 154z"/>
<path style="fill:#8e8d00; stroke:none;" d="M448 154L448 155C459.23 155.001 459.212 157.736 459 168L431.17 169.235L413 176L413 177L447 169.985L459.972 167.397L461 154L448 154z"/>
<path style="fill:#5e5d00; stroke:none;" d="M461 154C461 157.897 462.436 165.444 458.682 167.973C455.888 169.856 450.283 169.817 447 169.961C436.277 170.43 429.713 174.242 419.91 176.687C416.906 177.436 413.145 176.152 410.336 177.603C406.266 179.707 410.472 184.094 413 185L410 178L447 181L447 180L426 180L426 178L460 173L460 177L461 177C461.826 171.596 457.302 172.015 453 172L453 170C462.411 169.967 464.545 162.448 461 154z"/>
<path style="fill:#757400; stroke:none;" d="M480 154L481.028 172.258L491 174.633L523 177L523 176L500 175.725L482 172L480 154z"/>
<path style="fill:#e7e500; stroke:none;" d="M483 154L483 155L524 155C513.25 150.489 494.696 154 483 154z"/>
<path style="fill:#afae00; stroke:none;" d="M391 155L391 156C394.504 158.183 395.686 159.867 396 164C397.981 159.223 396.012 155.799 391 155z"/>
<path style="fill:#d9d600; stroke:none;" d="M450 155L450 158L459 158L456 167C445.223 167 433.15 164.751 424 171L424 172L459 168C459.397 158.753 460.724 155.008 450 155z"/>
<path style="fill:#c3c100; stroke:none;" d="M176 156C176 165.713 175.83 179.06 188 181L176 156z"/>
<path style="fill:#3a3900; stroke:none;" d="M284 187L285 187L288 156C280.479 158.496 284 180.081 284 187z"/>
<path style="fill:#b5b300; stroke:none;" d="M205 157L205 159L240 160L240 157L205 157z"/>
<path style="fill:#757400; stroke:none;" d="M329 168L330 168L330 159L336 159C328.732 154.747 329.001 162.824 329 168z"/>
<path style="fill:#5f5e00; stroke:none;" d="M287 158L283 190L277 188C288.26 200.759 289.849 164.79 287 158z"/>
<path style="fill:#595800; stroke:none;" d="M96 161L100 169L91 169L91 170C96.5984 171.946 106.494 167.428 98 164L98 162L102 159L96 161z"/>
<path style="fill:#6c6b00; stroke:none;" d="M475 159L474 168L477 168L477 159L475 159z"/>
<path style="fill:#565400; stroke:none;" d="M82 160L84 165L80 165L80 169L91 169L91 168L82 168L82 166C87.3478 165.12 86.8594 161.374 82 160z"/>
<path style="fill:#949200; stroke:none;" d="M240 160L240 161L246 165L252 165C248.701 161.088 244.993 160.218 240 160z"/>
<path style="fill:#d2d000; stroke:none;" d="M268 160L271 187L272 187C272 179.905 275.198 163.774 268 160z"/>
<path style="fill:#616000; stroke:none;" d="M62 173L64 176L68 174L66 179C70.853 177.96 69.181 172.795 65 172L65 163L68 165C68.5636 162.519 66.1023 160.318 64.5988 163.337C63.095 166.357 63.7465 169.86 62 173z"/>
<path style="fill:#898700; stroke:none;" d="M85 161L85 162C86.1025 164.694 84.5822 165.225 82 166L82 168L100 169L96 161L85 161z"/>
<path style="fill:#757400; stroke:none;" d="M155 161L156 192L157 192L155 161z"/>
<path style="fill:#3b3a00; stroke:none;" d="M198 161L198 162L236 162.109L251 166L251 167C245.367 167 234.14 164.553 232 171L233 171C237.872 166.025 247.455 168 254 168L254 165L246 165C244.21 159.91 238.603 161 234 161L198 161z"/>
<path style="fill:#4b4a00; stroke:none;" d="M165 162L161 176L165 174L166 189C174.604 186.157 172 173.203 172 166L168 166L168 162L165 162z"/>
<path style="fill:#bcb900; stroke:none;" d="M249 162L249 163L254 165L252 170L257 169C256.229 164.266 253.538 162.825 249 162z"/>
<path style="fill:#9f9d00; stroke:none;" d="M272 162L272 187L273 187L272 162z"/>
<path style="fill:#858300; stroke:none;" d="M65 163L65 172L69 179L65 176L64 176L65 181L71 181L70 173L73 174L68 163L65 163z"/>
<path style="fill:#605e00; stroke:none;" d="M273 163C273 169.301 269.935 185.655 277 188L277 187L273 163z"/>
<path style="fill:#b8b600; stroke:none;" d="M312 163L312 176L313 176L312 163z"/>
<path style="fill:#5a5800; stroke:none;" d="M314 163L314 176L315 176C315.304 171.216 318.535 166.287 314 163z"/>
<path style="fill:#bcb900; stroke:none;" d="M117 164C114.436 169.261 109.859 172.562 104 173L95 179L95 180C101.224 179.067 119.651 172.376 117 164z"/>
<path style="fill:#898700; stroke:none;" d="M172 164L172 184L173 184L172 164z"/>
<path style="fill:#7c7a00; stroke:none;" d="M179 164L179 172L180 172L179 164z"/>
<path style="fill:#585700; stroke:none;" d="M180 164L180 172L181 172L180 164z"/>
<path style="fill:#2f2f00; stroke:none;" d="M181 164C181 170.615 179.852 176.729 188 177L188 175L183 175L181 164z"/>
<path style="fill:#1f1e00; stroke:none;" d="M102 165C100.226 171.13 96.4674 171.151 91 170L101 176L108 172L108 171L103 171C104.431 168.115 104.692 166.939 102 165z"/>
<path style="fill:#565500; stroke:none;" d="M69 166L76 176L69 166z"/>
<path style="fill:#434300; stroke:none;" d="M190 175C201.731 177.178 220.914 178.698 232 174L230 168C218.786 168 194.827 162.915 190 175z"/>
<path style="fill:#605e00; stroke:none;" d="M234 168L234 169L252 169L234 168z"/>
<path style="fill:#171700; stroke:none;" d="M472 168L476 171C478.379 179.509 483.729 178.331 491 178.594C503.328 179.04 515.654 179 528 179L528 178C518.884 178 498.615 181.755 492 175C482.686 177.899 479.654 172.599 472 168z"/>
<path style="fill:#e6e300; stroke:none;" d="M482 168L482 172L533 177L533 176L526 175L526 172C510.787 172 496.666 172.424 482 168z"/>
<path style="fill:#787600; stroke:none;" d="M193 170L193 172L216 172C212.179 166.702 198.73 168.306 193 170z"/>
<path style="fill:#9f9d00; stroke:none;" d="M228 177C231.717 175.512 233.354 173.999 234 170L252 170C242.373 165.96 233.682 169.228 228 177z"/>
<path style="fill:#898700; stroke:none;" d="M313 169C312.875 172.878 312.498 175.072 309 177L309 178C313.946 177.175 314.838 173.391 313 169z"/>
<path style="fill:#c4c200; stroke:none;" d="M155 170C154.676 176.319 149.387 187.712 156 192L155 170z"/>
<path style="fill:#3a3900; stroke:none;" d="M315 170L306 182C312.312 181.297 317.781 176.706 315 170z"/>
<path style="fill:#242300; stroke:none;" d="M453 170L453 172L460 172L460 170L453 170z"/>
<path style="fill:#8f8d00; stroke:none;" d="M61 171L64 176L61 171z"/>
<path style="fill:#c0be00; stroke:none;" d="M394 172L394 185L398 192L399 192L394 172z"/>
<path style="fill:#d5d300; stroke:none;" d="M412 175L424 173C420.003 171.323 414.507 171.133 412 175z"/>
<path style="fill:#a8a600; stroke:none;" d="M70 173L71 180L76 178L70 173z"/>
<path style="fill:#636200; stroke:none;" d="M102 173C93.0246 182.826 86.329 176.775 76 176C79.3496 185.625 101.103 181.331 104 173L102 173z"/>
<path style="fill:#8a8900; stroke:none;" d="M426 178L426 180C433.718 180 458.411 182.523 460 173L426 178z"/>
<path style="fill:#353400; stroke:none;" d="M462 173C459.164 178.405 455.289 177.132 450.09 178.299C437.667 181.087 428.468 179.043 416 179C420.211 185.496 436.949 181.361 443.996 182.108C446.713 182.396 449.471 184.55 452.15 184.292C455.215 183.998 456.252 181.519 457 179C460.627 178.422 463.257 176.954 462 173z"/>
<path style="fill:#b8b600; stroke:none;" d="M494 173L494 174C503.759 178.135 524.044 171.147 531.4 179.434C546.072 195.962 516.557 193 508 193L409 193C410.303 188.708 412.735 188.139 417 188L417 186L410 186C409.083 177.671 411.596 176.174 420 176L420 175L405 178L408.646 192.972L433 194L501 194L526 194L536.392 192.397L534 177L494 173z"/>
<path style="fill:#2c2b00; stroke:none;" d="M65 174L65 177L68 177L68 174L65 174z"/>
<path style="fill:#6e6d00; stroke:none;" d="M161 187L166 188L165 174C160.018 176.747 161 181.908 161 187z"/>
<path style="fill:#2e2d00; stroke:none;" d="M426 174L426 177C430.192 177 434.52 177.825 437 174L426 174z"/>
<path style="fill:#adab00; stroke:none;" d="M445 174L445 176L459 176L459 174L445 174z"/>
<path style="fill:#605e00; stroke:none;" d="M188 175L188 176L228 177L188 175z"/>
<path style="fill:#464600; stroke:none;" d="M492 175C499.859 187.122 531.475 166.311 532 188L533 188C532.986 170.057 505.202 178.493 492 175z"/>
<path style="fill:#8e8d00; stroke:none;" d="M183 178L183 179L227 178C215.764 173.285 194.757 176.504 183 178z"/>
<path style="fill:#717000; stroke:none;" d="M182 177L182 178L188 178L182 177z"/>
<path style="fill:#cfcc00; stroke:none;" d="M66 181L66 182L76 179L66 181z"/>
<path style="fill:#e0dd00; stroke:none;" d="M76 179C79.1549 186.848 98.8664 184.107 103 178C92.0168 180.541 86.9255 181.845 76 179z"/>
<path style="fill:#adab00; stroke:none;" d="M200 178L200 179L223 179L200 178z"/>
<path style="fill:#d5d300; stroke:none;" d="M203 179L203 180L220 181L220 179L203 179z"/>
<path style="fill:#7b7a00; stroke:none;" d="M302 185L311 186L309 194L310 194L309 190L315 190L316 186C311.192 184.838 306.476 185.047 307 179L302 185z"/>
<path style="fill:#252500; stroke:none;" d="M529 179L532 191C527.125 190.855 524.288 189.63 521 186L520 186C521.978 192.409 528.324 192.677 534 191L529 179z"/>
<path style="fill:#a2a000; stroke:none;" d="M81 181L81 182L92 182L81 181z"/>
<path style="fill:#424100; stroke:none;" d="M411 182C414.744 185.868 419.827 185.957 425 186C421.203 189.878 416.122 189 411 189L411 191L451 191L451 190C444.71 190 434.25 192.41 432 185L411 182z"/>
<path style="fill:#181800; stroke:none;" d="M307 184L307 185L317 186C317.009 197.585 325.882 195.681 336 196C336.222 193.09 336.539 190.141 340.059 189.747C344.352 189.266 348.681 191.824 353 191.981C367.293 192.502 381.697 192 396 192L396 186C393.579 187.171 386.642 190.086 391 185L391 184C387.346 184.762 383.724 187.154 388 190L388 191L332 188L332 195L331 195C328.393 190.271 323.884 191.001 319 191L319 184L307 184z"/>
<path style="fill:#2c2b00; stroke:none;" d="M433 186L432 186C434.466 193.431 448.909 189.507 455 189.09C469.982 188.064 484.18 193.131 499 191.942C506.919 191.307 511.73 185.029 520 185C511.671 181.505 505.787 189.083 498 190.701C491.357 192.082 487.013 189.039 480.91 188.144C471.41 186.749 459.556 187.26 450 188.17C443.951 188.745 437.809 190.54 433 186z"/>
<path style="fill:#898700; stroke:none;" d="M410 185L410 186L417 186L417 188C412.566 188.053 409.802 188.194 409 193C426.391 193 449.346 196.923 466 192L466 191L410 192L425 186L410 185z"/>
<path style="fill:#424100; stroke:none;" d="M503 192L524 192L524 191L520 185C513.12 185.005 507.802 186.856 503 192z"/>
<path style="fill:#6d6c00; stroke:none;" d="M533 185L534 191C512.234 196.182 487.918 190 466 190L466 191C483.931 191.012 501.926 193 520 193C525.586 193 541.048 194.374 533 185z"/>
<path style="fill:#bfbc00; stroke:none;" d="M306 186L306 187L308 188C305.798 191.451 307.044 193.515 310 196L311 186L306 186z"/>
<path style="fill:#605e00; stroke:none;" d="M316 186L310 193L310 194L336 200C340.561 194.014 347.962 194.356 355 193.965C368.682 193.203 382.261 193 396 193L396 192L354 191.981L339.148 189.488L336 196L318.603 194.208L316 186z"/>
<path style="fill:#a4a300; stroke:none;" d="M397 186C396.399 193.879 390.453 193 384 193C370.228 193 356.673 193.197 343.005 195.019C338.398 195.634 338.067 200.753 334.701 201.37C332.156 201.836 330.009 198.469 327.83 197.603C324.377 196.23 319.657 197 316 197L316 199L338 204C338.554 196.74 343.12 197.607 349 196.139C360.33 193.309 372.401 194 384 194C389.943 194 400.857 195.292 397 186z"/>
<path style="fill:#c0be00; stroke:none;" d="M273 187C274.609 192.63 283.52 197.47 286 190L285 190C280.679 194.081 276.829 190.098 273 187z"/>
<path style="fill:#868400; stroke:none;" d="M274 188L274 189L284 193L274 188z"/>
<path style="fill:#373600; stroke:none;" d="M309 190L309 192L313 193L313 189L309 190z"/>
<path style="fill:#535200; stroke:none;" d="M451 189L451 190L475 190L451 189z"/>
<path style="fill:#5a5800; stroke:none;" d="M410 190L421 192L451 192L451 191L410 190z"/>
<path style="fill:#989600; stroke:none;" d="M310 194L310 197L316 197L310 194z"/>
<path style="fill:#e6e300; stroke:none;" d="M339 197L339 198L396 195C379.558 188.101 355.991 196.951 339 197z"/>
<path style="fill:#d5d300; stroke:none;" d="M410 194L410 195L498 195L498 198L536 195C525.973 190.792 508.896 194 498 194L410 194z"/>
<path style="fill:#7d7c00; stroke:none;" d="M336 198L330 199C332.421 201.881 337.84 203.608 336 198z"/>
<path style="fill:#d4d200; stroke:none;" d="M328 199C329.474 204.189 332.728 206.387 338 205L338 204L328 199z"/>
</svg>
