<?xml version="1.0" standalone="no"?>
<!DOCTYPE svg PUBLIC "-//W3C//DTD SVG 20010904//EN"
 "http://www.w3.org/TR/2001/REC-SVG-20010904/DTD/svg10.dtd">
<svg version="1.0" xmlns="http://www.w3.org/2000/svg"
 width="500.000000pt" height="638.000000pt" viewBox="0 0 500.000000 638.000000"
 preserveAspectRatio="xMidYMid meet">

<g transform="translate(0.000000,638.000000) scale(0.100000,-0.100000)"
fill="#ffffff" stroke="none">
<path d="M0 3190 l0 -3190 2500 0 2500 0 0 3190 0 3190 -2500 0 -2500 0 0
-3190z m3527 2301 c27 -13 48 -31 59 -53 9 -18 27 -46 40 -63 15 -20 26 -56
34 -110 6 -44 15 -106 21 -137 5 -32 7 -87 3 -122 -5 -46 -3 -70 5 -80 7 -8
11 -23 10 -33 -6 -36 19 -63 59 -63 61 -1 112 -57 116 -129 2 -20 3 -195 4
-389 1 -231 5 -351 12 -347 6 4 10 -37 9 -114 0 -66 4 -146 10 -178 6 -32 12
-125 15 -206 4 -131 3 -150 -12 -165 -10 -10 -25 -34 -35 -54 -18 -38 -33 -48
-75 -48 -21 0 -24 2 -12 10 13 9 13 12 -2 24 -24 18 -23 25 3 19 18 -5 20 -3
14 16 -4 12 -2 21 4 21 6 0 11 11 11 24 0 13 6 27 13 29 9 4 9 8 -2 15 -16 12
-9 81 10 93 16 9 17 191 1 197 -6 2 -8 10 -5 18 3 8 -1 20 -10 27 -8 7 -18 32
-21 57 -3 25 -13 79 -21 120 -8 41 -19 131 -23 199 -5 87 -11 126 -20 129 -10
3 -13 -22 -14 -110 0 -62 -1 -138 -2 -168 0 -30 3 -241 7 -469 7 -431 9 -443
57 -578 11 -28 21 -70 24 -94 3 -23 9 -45 14 -48 31 -20 62 -496 40 -609 -13
-62 -40 -96 -71 -86 -12 4 -30 8 -39 9 -10 1 -27 10 -38 20 -29 27 -131 28
-157 2 -27 -26 -23 -176 6 -282 13 -44 24 -91 26 -104 1 -13 6 -26 11 -30 5
-3 10 -22 12 -42 3 -31 -2 -41 -33 -68 -25 -22 -40 -29 -48 -22 -12 9 -18 11
-37 11 -5 0 -10 7 -10 15 0 8 -7 15 -16 15 -8 0 -13 4 -10 9 10 16 24 176 16
186 -4 5 -11 63 -15 127 -7 114 -20 158 -43 144 -6 -4 -9 -13 -5 -21 3 -8 0
-15 -6 -15 -6 0 -11 -17 -11 -40 0 -23 5 -40 11 -40 9 0 10 -32 5 -116 -5 -73
-4 -119 2 -123 5 -3 13 -54 17 -113 l7 -108 -55 0 c-30 0 -69 6 -86 13 l-31
13 28 32 c16 18 34 32 39 32 15 0 23 25 23 73 0 68 -11 117 -26 117 -8 0 -14
9 -14 20 0 11 6 20 13 20 8 0 9 2 1 8 -17 10 -34 79 -34 135 0 27 -4 56 -9 65
-21 40 -81 359 -81 435 0 32 -6 70 -14 86 -8 15 -31 121 -51 236 -20 115 -40
214 -45 220 -15 18 -32 125 -35 220 -4 106 -10 135 -31 135 -8 0 -14 9 -14 21
0 12 -4 18 -11 13 -6 -3 -15 0 -20 7 -7 11 -9 11 -9 -2 0 -9 -8 -24 -19 -33
-18 -16 -18 -15 -15 29 3 30 1 44 -6 40 -6 -4 -10 8 -10 29 0 29 3 34 16 29
14 -5 16 -1 10 31 -5 28 -2 43 13 65 17 24 25 74 51 340 31 316 38 543 24 728
-6 78 -4 95 14 136 12 26 25 46 29 45 4 -1 29 6 55 17 50 21 55 32 64 128 2
21 8 56 14 78 6 22 8 49 5 60 -6 19 6 73 27 116 6 12 8 29 4 39 -3 9 -1 23 5
30 6 7 9 19 6 26 -2 7 5 33 15 57 10 25 17 50 14 57 -3 7 6 24 19 38 13 14 21
26 17 26 -21 1 48 29 73 30 17 0 37 5 45 10 21 13 29 12 77 -9z m-2088 -70
c53 -28 62 -41 77 -127 14 -86 12 -115 -18 -190 -12 -30 -18 -62 -15 -75 4
-13 31 -54 62 -90 54 -64 57 -66 147 -93 156 -46 186 -63 197 -105 21 -77 52
-319 67 -512 12 -169 2 -201 -118 -386 -32 -48 -33 -58 -13 -212 8 -64 18
-165 24 -226 5 -60 12 -120 15 -132 2 -13 1 -23 -5 -23 -5 0 -9 5 -9 12 0 9
-3 9 -11 1 -18 -18 -5 -156 44 -438 26 -148 51 -277 55 -285 4 -8 10 -206 14
-440 4 -234 9 -456 10 -495 3 -64 1 -70 -21 -81 -12 -7 -42 -31 -65 -53 -49
-48 -112 -71 -190 -71 -107 0 -121 22 -55 85 70 69 110 130 112 173 1 38 -18
72 -41 72 -11 0 -17 47 -33 260 -22 305 -52 474 -122 686 -35 105 -70 199 -80
208 -14 14 -17 15 -17 3 0 -9 -5 -17 -12 -19 -7 -3 -14 -45 -19 -114 -22 -324
-28 -439 -34 -643 -5 -169 -10 -227 -20 -238 -8 -7 -17 -33 -21 -58 -5 -36
-11 -46 -30 -51 -13 -3 -24 -10 -24 -15 0 -5 -22 -9 -50 -9 -27 0 -50 5 -50
10 0 6 -7 10 -15 10 -8 0 -15 -4 -15 -8 0 -4 -24 -22 -53 -40 -42 -26 -68 -33
-129 -38 -83 -7 -128 -1 -128 19 0 7 16 19 35 26 19 7 41 18 48 26 7 7 36 24
64 39 75 38 115 98 142 216 36 160 54 324 48 440 -7 119 -64 530 -102 725 -18
90 -27 181 -32 295 l-5 165 -33 35 c-69 73 -68 67 -62 429 4 253 10 353 25
447 10 67 22 126 26 133 5 7 45 36 89 65 96 61 167 136 167 176 0 14 -12 50
-26 80 -29 60 -51 164 -60 284 -6 79 -6 82 21 115 37 43 56 50 138 50 48 1 79
-5 106 -18z"/>
<path d="M3172 4318 c-14 -14 -17 -194 -3 -202 17 -11 39 5 40 27 4 126 2 160
-11 173 -11 11 -16 12 -26 2z"/>
</g>
</svg>
