<?xml version="1.0" standalone="no"?>
<!DOCTYPE svg PUBLIC "-//W3C//DTD SVG 20010904//EN"
 "http://www.w3.org/TR/2001/REC-SVG-20010904/DTD/svg10.dtd">
<svg version="1.0" xmlns="http://www.w3.org/2000/svg"
 width="700.000000pt" height="700.000000pt" viewBox="0 0 700.000000 700.000000"
 preserveAspectRatio="xMidYMid meet">

<g transform="translate(0.000000,700.000000) scale(0.100000,-0.100000)"
fill="#ffffff" stroke="none">
<path d="M0 3500 l0 -3500 3500 0 3500 0 0 3500 0 3500 -3500 0 -3500 0 0
-3500z m5413 2489 c20 -5 37 -14 37 -18 0 -5 9 -11 20 -14 12 -3 28 -24 40
-51 10 -25 24 -46 30 -46 6 0 15 -11 20 -25 5 -14 13 -25 18 -25 5 0 14 -42
21 -92 6 -51 16 -125 22 -165 5 -39 7 -105 3 -147 -5 -54 -3 -80 5 -90 7 -8
11 -25 10 -38 -2 -13 3 -33 9 -45 11 -19 21 -23 62 -23 39 0 54 -5 68 -21 9
-12 29 -35 45 -51 15 -17 27 -38 28 -47 0 -9 2 -29 3 -46 1 -16 3 -219 5 -450
1 -231 5 -414 8 -407 14 34 23 3 23 -78 0 -65 -3 -90 -12 -90 -10 0 -10 -2 -1
-8 13 -8 18 -69 32 -356 9 -208 5 -256 -23 -256 -12 0 -36 -45 -36 -67 0 -17
-42 -33 -83 -32 -18 0 -26 3 -19 6 17 7 15 32 -3 39 -24 10 -17 22 10 16 15
-2 25 0 25 7 0 6 -4 11 -10 11 -5 0 -10 5 -10 10 0 6 7 10 15 10 10 0 15 10
15 30 0 17 5 30 10 30 6 0 10 7 10 15 0 8 -5 15 -11 15 -20 0 -4 88 20 109 22
19 28 41 11 41 -5 0 -10 23 -10 50 0 33 4 50 13 50 8 0 7 4 -3 10 -13 9 -13
11 0 21 11 8 12 12 3 16 -7 2 -13 13 -13 24 0 10 -4 19 -10 19 -5 0 -7 7 -3
16 4 10 0 20 -10 26 -10 5 -17 21 -17 38 0 15 -6 31 -12 33 -10 4 -9 8 2 16 8
6 10 11 4 11 -15 0 -44 190 -52 349 -5 97 -11 136 -20 139 -10 3 -13 -18 -12
-99 2 -173 1 -179 -15 -179 -11 0 -15 -12 -15 -45 0 -33 4 -45 15 -45 10 0 15
-10 15 -32 -1 -18 2 -238 5 -488 5 -467 10 -522 51 -633 8 -20 14 -46 14 -56
0 -11 4 -21 9 -23 6 -1 12 -25 16 -53 3 -27 10 -52 15 -53 6 -2 10 -19 10 -37
0 -19 6 -40 14 -47 26 -27 42 -542 20 -652 -9 -43 -52 -79 -84 -70 -14 4 -32
7 -40 8 -8 1 -31 10 -50 20 -53 27 -130 32 -172 12 -32 -15 -36 -22 -42 -68
-8 -59 3 -208 15 -208 4 0 11 -17 14 -37 3 -21 11 -58 18 -83 6 -25 10 -49 9
-54 -6 -18 10 -46 26 -47 11 0 12 -3 5 -6 -15 -6 -17 -33 -3 -33 6 0 10 -9 10
-20 0 -24 -57 -90 -77 -90 -7 0 -13 -6 -13 -12 0 -9 -3 -8 -10 2 -9 15 -13 16
-45 19 -8 0 -15 8 -15 16 0 8 -9 15 -20 15 -17 0 -19 5 -13 33 3 17 9 34 13
37 4 3 10 38 12 78 4 53 2 75 -7 78 -8 4 -14 48 -19 140 -7 131 -19 194 -37
194 -9 0 -12 -13 -10 -43 1 -9 -3 -17 -8 -17 -6 0 -11 -18 -11 -40 0 -23 5
-40 11 -40 9 0 10 -38 5 -141 -5 -88 -4 -144 2 -148 5 -3 13 -61 17 -128 l7
-123 -62 0 c-35 0 -80 5 -100 11 l-38 11 17 29 c9 16 22 29 29 29 6 0 12 5 12
10 0 6 6 10 14 10 19 0 26 23 26 88 0 82 -10 132 -26 132 -18 0 -19 50 -1 51
10 0 10 2 0 6 -7 2 -13 13 -13 23 0 10 -5 20 -11 22 -6 2 -15 43 -19 93 -10
108 -29 205 -40 205 -4 0 -10 17 -13 38 -14 111 -32 208 -40 213 -5 4 -13 60
-17 125 -5 66 -15 137 -23 159 -8 22 -20 88 -28 148 -9 75 -17 107 -26 107 -7
0 -13 4 -13 10 0 31 -33 227 -40 235 -4 6 -14 45 -21 88 -7 42 -17 77 -21 77
-4 0 -8 9 -8 20 0 11 5 20 10 20 6 0 10 20 10 45 0 25 -4 45 -10 45 -5 0 -10
17 -10 38 0 56 -10 82 -31 82 -14 0 -19 8 -20 28 0 15 -3 21 -6 15 -7 -18 -21
-16 -26 5 -4 14 -5 14 -6 -3 -1 -11 -12 -28 -25 -37 l-23 -17 3 50 c2 31 0 48
-6 44 -6 -4 -10 10 -10 34 0 33 3 39 17 34 14 -5 15 -1 9 36 -6 42 4 76 30 96
9 7 19 75 30 220 10 116 20 212 24 215 22 17 40 604 24 797 -4 44 -4 97 0 116
7 37 38 80 61 83 8 1 22 9 31 18 8 9 24 16 35 16 10 0 19 5 19 10 0 6 6 10 13
10 14 0 41 95 32 109 -7 12 17 131 27 131 4 0 8 11 8 25 0 14 -4 25 -10 25 -5
0 -10 9 -10 20 0 11 4 20 8 20 11 0 33 83 36 134 2 22 8 42 14 44 16 5 15 32
0 32 -9 0 -10 3 -2 8 11 7 46 102 43 118 -3 21 15 54 32 59 11 4 17 10 14 15
-3 5 4 11 15 15 11 3 20 11 20 16 0 5 19 9 43 9 23 0 49 5 57 10 19 12 27 12
73 -1z m-3373 -78 c0 -5 22 -18 49 -30 28 -11 53 -25 56 -31 3 -5 12 -51 20
-101 14 -99 9 -165 -19 -231 -25 -58 -20 -91 21 -145 20 -26 42 -52 50 -56 7
-4 13 -14 13 -21 0 -24 45 -45 152 -71 56 -14 105 -30 106 -35 2 -6 14 -10 26
-10 12 0 32 -8 44 -17 64 -50 61 -45 82 -189 11 -77 20 -153 20 -171 0 -17 4
-33 9 -35 13 -5 35 -364 27 -442 -4 -36 -14 -72 -21 -80 -8 -7 -17 -26 -21
-40 -3 -15 -18 -39 -33 -54 -15 -15 -39 -53 -54 -84 -15 -32 -31 -58 -37 -58
-13 0 -13 -117 -1 -122 9 -3 20 -100 40 -363 6 -66 12 -130 15 -142 3 -13 1
-23 -5 -23 -5 0 -9 5 -9 11 0 5 -4 7 -10 4 -15 -9 -12 -164 4 -242 8 -37 20
-115 27 -173 7 -58 16 -107 20 -110 3 -3 16 -75 29 -160 12 -85 27 -158 34
-162 8 -5 13 -151 18 -510 4 -277 10 -536 13 -576 7 -74 -2 -102 -31 -102 -7
0 -39 -25 -70 -56 -47 -47 -66 -59 -113 -70 -58 -14 -170 -18 -208 -8 -36 10
-29 47 15 86 21 18 49 49 63 68 13 19 36 46 50 60 39 38 49 140 13 140 -8 0
-14 5 -14 10 0 6 -9 10 -19 10 -21 0 -21 -5 -41 295 -18 266 -22 305 -30 305
-4 0 -10 35 -14 78 -13 147 -41 292 -56 292 -5 0 -13 23 -20 52 -6 29 -15 55
-20 58 -8 5 -40 111 -64 215 -8 37 -17 51 -31 54 -11 2 -23 8 -27 15 -5 7 -8
5 -8 -6 0 -9 -5 -18 -11 -20 -12 -4 -18 -76 -35 -405 -4 -73 -10 -133 -14
-133 -4 0 -10 -140 -14 -311 -5 -253 -9 -314 -21 -326 -8 -8 -15 -23 -15 -34
0 -10 -4 -19 -10 -19 -5 0 -10 -12 -10 -26 0 -29 -21 -54 -44 -54 -9 0 -16 -4
-16 -10 0 -6 -27 -10 -60 -10 -33 0 -60 4 -60 10 0 12 -27 14 -32 3 -7 -17
-129 -73 -157 -73 -17 0 -31 -4 -31 -10 0 -16 -159 -13 -176 4 -23 24 -17 33
31 45 24 6 55 22 67 34 13 13 38 28 55 34 48 17 133 94 133 121 0 7 6 15 14
18 8 3 19 36 26 82 7 42 17 80 22 83 12 8 37 202 44 349 5 98 2 169 -16 325
-13 110 -26 202 -30 205 -4 3 -10 32 -13 65 -14 137 -20 180 -27 185 -10 8
-60 338 -60 398 0 28 -4 52 -10 52 -6 0 -10 54 -10 141 l0 142 -48 46 c-26 25
-53 59 -60 74 -25 58 -9 907 18 907 4 0 10 32 14 72 4 40 10 75 14 78 4 3 15
21 25 41 14 28 36 44 102 78 62 31 90 52 109 82 15 21 32 39 40 39 21 0 46 45
46 81 0 39 -29 109 -45 109 -17 0 -32 59 -51 200 -26 201 -10 268 67 285 16 4
29 11 29 16 0 5 41 9 90 9 50 0 90 -4 90 -9z"/>
<path d="M5012 4598 c-14 -14 -17 -214 -3 -222 20 -13 37 7 41 47 11 124 -7
206 -38 175z"/>
<path d="M5690 4485 c0 -8 5 -15 10 -15 6 0 10 7 10 15 0 8 -4 15 -10 15 -5 0
-10 -7 -10 -15z"/>
</g>
</svg>
