<svg xmlns="http://www.w3.org/2000/svg" width="296" height="296">
<path fill="#ff6666" d="M17 0.529327C-7.75702 6.25061 0 44.3936 0 63L0 224L0 264C0 271.667 -0.872671 279.396 3.80015 285.996C15.9429 303.148 51.5884 296 70 296L212 296C232.009 296 258.762 300.679 278 295.211C302.681 288.197 295 252.542 295 233L295 70C295 53.3678 301.082 21.6921 290.072 8.17361C277.587 -7.155 240.854 0 223 0L83 0C62.4616 0 36.9949 -4.09143 17 0.529327z"/>
<path fill="#ffffff" d="M66 75L66 222L121 222L121 149L157.859 202L171.329 220.972L188 222L227 222L227 75L173 75L172 147C159.229 130.897 148.172 113.033 136.67 96C132.83 90.314 127.369 78.3062 120.826 75.6034C106.098 69.5192 81.7666 75 66 75z"/>
</svg>
